<svg xmlns="http://www.w3.org/2000/svg" viewBox="0 0 800 481.92"><defs><style>.cls-1{fill:#20464e;}.cls-2{fill:#fefefe;}.cls-3,.cls-8,.cls-9{fill:#fff;}.cls-4,.cls-5,.cls-6,.cls-7{fill:none;stroke-linecap:round;stroke-linejoin:round;stroke-width:3px;}.cls-4{stroke:#ef4439;}.cls-5{stroke:#ffd32a;}.cls-6{stroke:#3ab76a;}.cls-7{stroke:#00aeef;}.cls-8{font-size:24px;}.cls-8,.cls-9{font-family:AppleSpice, AppleSpice;}.cls-9{font-size:18px;}.cls-10{letter-spacing:0.04em;}.cls-11{letter-spacing:0.01em;}.cls-12{letter-spacing:0.02em;}.cls-13{letter-spacing:0.02em;}.cls-14{letter-spacing:-0.01em;}.cls-15{letter-spacing:-0.03em;}.cls-16{letter-spacing:0em;}</style></defs><title>Currying</title><g id="Слой_2" data-name="Слой 2"><rect class="cls-1" width="800" height="480"/></g><g id="Слой_1" data-name="Слой 1"><path class="cls-2" d="M102.19,28.79a50.71,50.71,0,0,1-4.34-13.51,1.34,1.34,0,0,0-1.4,0,22.74,22.74,0,0,1-3.07,7.12c-.87,1.39-1.93,2.52-2.67,3.83-.34.59-.87,1.68-.66,2.07.93,1,4,.8,5.77,1.36-.52,7.12.19,13.5-1,20.95a1.14,1.14,0,0,0,1.58.34,33.15,33.15,0,0,0,.43-4.84A24,24,0,0,1,97,41.79c0,2.26,0,5.27-.05,7.7a1.25,1.25,0,0,0,1.63.51c-.43-6.3-.11-12.9-.23-19.9.82.19,1.33,0,1.81.38.46-.43,1.25-.41,1-1.16C101.68,29.38,101.9,29,102.19,28.79Zm-8.78-.62c-.3-.13-.36,0-.76-.13a21.39,21.39,0,0,1,1.5-3.8A19.66,19.66,0,0,0,93.42,28.17Zm1.62.12c.23-.16,0-.53,0-.93,0-.86.36-1.9.41-2.42,0,1.35.11,2.43.11,3.52C95.43,28.24,95.17,28.52,95,28.28Zm2,13.43a3.53,3.53,0,0,1-.06-2A12.93,12.93,0,0,1,97.05,41.71Zm0-2.26a11.42,11.42,0,0,1-.11-2.59A10.74,10.74,0,0,1,97,39.45Zm0-5.06c-.27-.68.12-.85,0,0Zm.25-5.64c.11-.16,0-.62,0-.93-.6-1.47-.36-3.62-.28-5.73.37,2.32.66,3.93,1.16,6,.2.48.87.32.87.85C98.34,28.95,98.11,28.8,97.29,28.74Zm1.9-3c.51,1.06.92,2.19,1.4,3.27C99.69,28.28,99.52,27,99.19,25.79Z" transform="translate(-0.5)"/><polygon class="cls-3" points="99.31 450.08 99.45 448.97 99.04 448.62 99.31 450.08"/><path class="cls-3" d="M101.28,444.82l-.18-1.89c-1.19,1.09-.85-.38-1.69,2.59.19,1,.61,3.33,1.08,3a12.47,12.47,0,0,1-.37-2.95c.35.47.31,1.66.76,2.22.36-1.79-.3-1.13-.14-3.1Z" transform="translate(-0.5)"/><path class="cls-3" d="M100.08,442.58c.21.17.41.35.58.32C100.46,442.73,100.2,441.8,100.08,442.58Z" transform="translate(-0.5)"/><path class="cls-3" d="M100,441.43c0-1.2.44,0,.5-.1L99.69,440Z" transform="translate(-0.5)"/><path class="cls-3" d="M100,436.45c0-.2,0-.38-.07-.56C99.8,436.08,99.9,436.24,100,436.45Z" transform="translate(-0.5)"/><path class="cls-3" d="M99.89,434a3.11,3.11,0,0,0,0,1.89l0-.08c.22-.69.77,0,.63,1.07.13,1.16-.41,1.06-.05,2.06l.44-1.38A9.69,9.69,0,0,0,99.89,434Z" transform="translate(-0.5)"/><path class="cls-3" d="M100,436.45a6.43,6.43,0,0,1,0,.65A.86.86,0,0,0,100,436.45Z" transform="translate(-0.5)"/><polygon class="cls-3" points="99.44 438.95 99.55 439.57 99.78 439.42 99.44 438.95"/><path class="cls-3" d="M99.84,429.92c.74.28-.07,2.92.51,3.24,0-1.62.51-2.9.92-2.56l-.24-1.78C100.74,428.23,100.19,429,99.84,429.92Z" transform="translate(-0.5)"/><path class="cls-3" d="M101.71,426.41a1.23,1.23,0,0,1-.13-.41A.85.85,0,0,0,101.71,426.41Z" transform="translate(-0.5)"/><path class="cls-3" d="M100.4,417.4l.76,4.16c-.24-.39-.48-.23-.56-1.18-.09,1.85.38,2.08.31,3.61-.69.46-.06-2.69-.68-1.81a7.34,7.34,0,0,0,.65,3.54l-.47,1.7.76-.58c.22-.69-.6-1.39-.07-1.82.33-.22.39.48.47,1-.16-1.1.59-3,.48-5.24S100.77,418.94,100.4,417.4Z" transform="translate(-0.5)"/><polygon class="cls-3" points="100.74 417.23 101.04 416.96 100.64 417.15 100.74 417.23"/><path class="cls-3" d="M100.23,412.69l.48,2.17a1.27,1.27,0,0,1-.36.52c.17-.09.47.5.62.4.68-1-.23-2.65-.35-3.81.3-3.08.37.14,1-1.07,0,.86-.18.9-.22,2.09.77-1.88,0-4.25-.15-5.46-.07.35-.28.44-.22,1.11l-.23-1.25C100.28,408.69,100.14,409.8,100.23,412.69Z" transform="translate(-0.5)"/><path class="cls-3" d="M100.25,416.57c-.05-.81,0-1.11.09-1.18C100.16,415.6,100,415.87,100.25,416.57Z" transform="translate(-0.5)"/><path class="cls-3" d="M101.25,406.88a1.68,1.68,0,0,0,0,.66A1.76,1.76,0,0,0,101.25,406.88Z" transform="translate(-0.5)"/><path class="cls-3" d="M100.43,408.12l.07-1.52-.32.6C100.22,407.4,100.27,408.15,100.43,408.12Z" transform="translate(-0.5)"/><path class="cls-3" d="M101.3,350c-.28.14-.42.7-.36,1.87-.37-.14-.31-1.66-.52-2.37-.24,1.55-.44,0-.8.37,0,1.73.46,2.5.36,4.35-.11-.09-.27-.06-.4.18a40.42,40.42,0,0,1,.29,8.18,39.43,39.43,0,0,0,.22,6c-.17,7.58.24,15.48-.09,23.63l.73,1.15c-.36.39,0,1.94-.47,1.71a6.49,6.49,0,0,0,0-1.4c-.63,1.74.07,4.62-.15,6.72.13-.24.76-.58.87,0-.81-.16,0,2.47-.91,3.09-.22,2.09.71.08.58,2.25.48.23.23-2.09.58-2.48.39.68-.16,2,.35,1.87.22-3.5-.79-10-1.08-15.32l.45.56c-.33-2.73-.36-7.16.36-9.34-.43.51.22-4-.75-3.62a6.77,6.77,0,0,0,.26-1.89l-.31-.27c0-1.4.48-1.18.44-2.78-.41,1-.54-.12-.89-.58.46-1.84.86-4,1.23-5.63a1.69,1.69,0,0,0-.46.84c.14-1.11-.26-.92-.4-1.22,0-1.07.52-1,.79-.91.16-2-.87-2.85-.53-4.32l-.43.52c-.11-2,.35-3.73.2-6,.58-1.08.51,1.84.77,2.76a10.22,10.22,0,0,1,.35-1.72c-.3-1-.72-2.56-1-3.75C101.31,353.57,101.26,350.73,101.3,350Z" transform="translate(-0.5)"/><path class="cls-3" d="M101.63,356.2a6.41,6.41,0,0,0,.23.64,2.59,2.59,0,0,1,0-.75C101.73,356.06,101.68,356.11,101.63,356.2Z" transform="translate(-0.5)"/><path class="cls-3" d="M101.3,350s0,0,.07,0C101.33,349.69,101.31,349.77,101.3,350Z" transform="translate(-0.5)"/><path class="cls-3" d="M99.84,362.84c0-.09,0-.2,0-.29s0-.24,0-.37Z" transform="translate(-0.5)"/><path class="cls-3" d="M101.79,364.51c-.15.43-.3,1-.46,1.71C101.53,366,101.68,365.87,101.79,364.51Z" transform="translate(-0.5)"/><path class="cls-3" d="M101.36,378.17c.08.42.21.18.34.47C101.72,377.78,101.58,377.49,101.36,378.17Z" transform="translate(-0.5)"/><polygon class="cls-3" points="101.23 353.74 101.09 352.03 100.97 351.41 101.23 353.74"/><path class="cls-3" d="M99.39,319.26c-.51,1.5-.19,3.71-.28,5.56.28,3.39,1.12.42,1.19,3.64l-1.06-.55c.07,3.22-.13,7.79.8,10.52-.13.25-.28.81-.44,0,.05,2.15,1.51,1.11,1.17,4-.66-2.68-.62.88-1.27.15l-.08-.42c.08,1.82.43,4.23.39,5.42.27,0,.68-1,.72.61.05-.65.36-.39.63-.33-.31-1.67-.12-2.57-.48-3.58.35-.93.11.63.46-.3l-.33-1.34c.08-1,.36,1,.43-.52a5.49,5.49,0,0,1-.39-2.62l.12.35c-.14-.92,0-2.21-.56-1.77l.58-1.08-.4.19c.15-2.51,1.1-3.46.59-6.7-.12.78-.33.07-.41-.35-.27,1.35.31,1.66.37,2.95-.4.19-.88-2-1.12-.43.47-1.7-.07-3.22.92-4,.06-2.05-.43-2.83-.21-4.92l.15.06c-.66-.38.29-1.7-.39-3.25l-.14,1.1c-.27-.05-.28-.58-.33-1.33.1.08.1.08.23-.16-.48-.22-.56-2.58-.7-2.87a21,21,0,0,0,.44,3.36C99.71,320.06,99.31,320.24,99.39,319.26Z" transform="translate(-0.5)"/><path class="cls-3" d="M101.2,340.46l-.23-.66A1.41,1.41,0,0,0,101.2,340.46Z" transform="translate(-0.5)"/><path class="cls-3" d="M100.19,309.93c.1-1.31.41.35.62-.88-.34-1.33-.67,1.53-1.17.23.28-.81-.21-2.11-.23-2.65.28.59.91.24,1,0a12.06,12.06,0,0,1,.15-2.51c-.39,2.12-.24-1.78-.67.13-.37-.14-.65-2.14-.37-3,.27.06.22.71.23,1.26.51.43.27-1.35.74-1.66-.72-2-.69-8.5-1.83-6.65a5.28,5.28,0,0,0,.11,2c.22-2.11.61,0,.81.16-.18.9.19,2.44-.22,2.09L99,297.12c-.2,4.56-.1,10.8.08,16.05l0-2.27c.31.26.33,1.34.49,2.17l.75-1.11c-.05.65.06,1.28-.21,1.22.32.8.51.43.77,0,.14,1.69-.16,2,.34,3.28.61-2.82-.52-2.38,0-5.6Z" transform="translate(-0.5)"/><polygon class="cls-3" points="100.13 316.1 99.74 315.42 99.93 316.46 100.13 316.1"/><path class="cls-3" d="M99,315c.17,0,.24.38.41.34C99.47,314.06,99.24,314.22,99,315Z" transform="translate(-0.5)"/><path class="cls-3" d="M100.56,299.18l-.14-1.7-.14,1.1C100.44,298.56,100.52,299,100.56,299.18Z" transform="translate(-0.5)"/><path class="cls-3" d="M98.55,287.29c.08,2.36.44,3.36.06,6,.5,1.31.93-.61,1.38-.05.1-1.32-.73-1.15-.9-2.53.42-.51-.1-2,0-3.31C98.91,287.59,98.71,287.59,98.55,287.29Z" transform="translate(-0.5)"/><path class="cls-3" d="M100.16,279.18a16,16,0,0,1-.13-3c.27.12.37.76.3,1.41.61-.42-.1-1.19.3-2.35-.07.1-.17.52-.3.2.13-2.89-.5-1.62-.17-5.38-.17-.54-.17-1.08-.57-1a27.14,27.14,0,0,0,.94-3.62c-.24.1-.77.94-1.28.93.7-3.63-.11-3.7.41-6a3.78,3.78,0,0,1,.09,1.19c.7-.3-.13-1.94,0-3.23l.6.12c-.1-1.19-.5-3.24-.07-4.73l.3.34c-.47-3-.27-6.58-.5-9.16l.37-1.39c-.47-3.56-.2,3.54-1.11.94,1.11-.4-.37-1.84.07-3.87.44-1,.24,2.05.74,1-.57-.45-.17-1.08-.34-2.16.54.23.07-2.26.67-1.59l-1-3.8a5.48,5.48,0,0,0,.17-2.53c0,2.05-.8-.56-1,1.74a104.64,104.64,0,0,1,.2,13.13c.74.46,0,2.69.6,3.35-.24.1-.44.41-.67.52.17,2.7.4-.64.67,0,.1,1.18-.34,2.14-.6,2,0,1.93.2.21.6,1.2l-.81,1.26c.27,6,.84,14,.4,20.88l.5-.52c-.27,3.12,1.14,5.2.06,8l.44.94c-.25-.51-.76.54-1.11-.27.17.84,0,1.75.14,2.62l.24-1.55a2.81,2.81,0,0,1-.2,2.65c.52,2.32.87-1.38,1.3-1.9-.95-3.26.9-3.29.5-6.43C100.59,277.15,100.42,279.3,100.16,279.18Z" transform="translate(-0.5)"/><path class="cls-3" d="M98.78,283.23a2.71,2.71,0,0,0,.14.47A2.44,2.44,0,0,0,98.78,283.23Z" transform="translate(-0.5)"/><path class="cls-3" d="M99.66,231.46c0-.24,0-.53,0-.91S99.59,230.73,99.66,231.46Z" transform="translate(-0.5)"/><path class="cls-3" d="M99.09,287.43h0v0Z" transform="translate(-0.5)"/><polygon class="cls-3" points="99.84 288.98 99.85 288.11 99.62 288.26 99.84 288.98"/><path class="cls-3" d="M100.27,222.28H100C100.08,222.35,100.17,222.39,100.27,222.28Z" transform="translate(-0.5)"/><path class="cls-3" d="M100.35,197.44V198A1.51,1.51,0,0,0,100.35,197.44Z" transform="translate(-0.5)"/><path class="cls-3" d="M99.61,137.83a25.51,25.51,0,0,0-.77-5l.27.12c-.13-.86-.57-3.67-1-1.86l.23.44c.4,2.05-.44,1.49-.6,3.1.13,1.93,1.14,3,.9,4.76,0,.75-.24.63-.44.41-.07,1.72.7,2.39.8,3.58-2,.48.57,5.29-.71,7.84a55.19,55.19,0,0,0,.4,5.82c-.5-1.09,0,1.93-.6,1.49,1.17.58-.51,5.91,1,6.27-.41,2.79.1.11-.24,3.33-.17,0-.17-.54-.2-.76-.3,1.27.64,2,0,3-.1,2.58.4.43.8,2-.17,2.68-.37,1.93-1,3.41.7.24.37,1.83.74,3.14,0-.33.17-2.15.44-1-.1,3.11.47,2.49.67,5.4-.77,1.48,0-2.91-.64-.34-.37-1.84-.34-3.24-.9-4.23a62.72,62.72,0,0,0,.43,8.19c-.1,1.5-.37-.76-.44.41-.33,2.68.81,4.12.47,6.26l-.4-.44c.54,1.3-.1,4.73.2,7.21.2-.32.34-.53.47-.2-1,0,.54,3.45-.17,5.91.64-.2,1,2.18,1.07,3.69-.17.53-.44.42-.61.41.37-2.47-.71-2.39-1-4.34.33,1.62,0,4.31.47,5.72l-.5-.55c-.07,2.25,1.14,2,.67,4.32l-.37-.23c.07,4.74-.57,10.31.26,14.1.31.33,1-1.59,1.24-1.69-.27-2.26-.8-3.57-1.07-5.3l.58,0c-.4-.39-.64-2.47-.94-1.32-.3-1.41.5-1.07.17-2.69.6.13.67,1.1,1.17,1.11l-.3-1.41c.24.45.2-.84.44-.41-.74-2.61.27-3.64-.07-6.34l-.1,1.5c-.34,0-.3-.87-.4-1.52.47-.74.4-1.18.6-2.56-.27-1.19-.87-1.85-.87-3.47.64.34.34-2.68.87-3-.63-.34-.23-3.12-.6-3.35-.13-.86-.07-2,.27-2,0,.12.08.38.11.65l0-.86c.07.08.13.05.14.15,0-.77-.45-.77-.14-1.77.17,0,.17.55.23,1,.1-2-1-3.58-.4-5.29-.3-.34-.33-2.7-1-2.19.23-.64.77-.4.67-2.12-.57-1,.2-1.93-.17-3.24.6,1.74.16,0,.74,1.53.23-1.18-.54-2.92-.44-5,.13-.21.3-.2.44-.42-.2-.76-.67-1.63-.2-2.37l-.4.09a35.07,35.07,0,0,1,.5-4.82l-.77-1.74c.8-2.34.07-5.48-.64-7.33,0-.86.17-2.14.34-2.14.06.2.18.54.28.93,0-1.26.46-2.8-.18-3.51-.2-1.29.44-.95.54-1.91-.91-2.61.64-7.73-.74-8.52,0,1.07-.27,3.1-.2,5.15-.17-.54-.44-.12-.47-.87-.07-2,.43-3.1.2-5.15l.87.24C100.45,143.77,98.37,140.58,99.61,137.83Z" transform="translate(-0.5)"/><path class="cls-3" d="M99.67,164.07l.44-1.49-.38.16A3.15,3.15,0,0,1,99.67,164.07Z" transform="translate(-0.5)"/><path class="cls-3" d="M99.73,162.73a6.43,6.43,0,0,0-.18-.87,3.2,3.2,0,0,0,.09.91Z" transform="translate(-0.5)"/><path class="cls-3" d="M99.44,131.9a6.34,6.34,0,0,0,0-1.61A3.73,3.73,0,0,0,99.44,131.9Z" transform="translate(-0.5)"/><polygon class="cls-3" points="98.67 130.18 98.54 130.92 98.64 131.03 98.67 130.18"/><path class="cls-3" d="M98.28,86.69l-.54-2.38c.27-.42-.07-3.12.4-2.25-.64-1.42,0-4.51-.94-3.36.33,7-.17,16.66.67,24.76l-.37-1.3c.74,4.21-.77,5.77.67,9.16l-.74-.45c-.2,1.93,1.07,3.69.3,5.7l.3-.2c0,.53-.13.74-.14,1.28l.13-.21a9,9,0,0,1,.07,3.66c-.23.1-.1-.65-.17-1.08-.24.64.27,1.73.27,2.81-.2.85-.34,0-.44-.13.34,3.24-.43,4.72.67,7,.2.22.37-.84.47.34a17.6,17.6,0,0,0-.41-5.82v.54c-1.07-1.54.24-1.18-.23-3.66.44.66.43,1.74.67,2.17.81-2.87-.63-4.11.4-6l0,.21a6.39,6.39,0,0,0-.2-1.84,6.82,6.82,0,0,0-.3,1.29,2.16,2.16,0,0,0-.77-1.21c.47-.74-.23-1,0-2.15.44-.42.4,1,.64,1.41l-.3-1.41c0-1.29.47-1.27.7-1.91-.34-1.09-.23.64-.7-.24.54-1.38.37-7.3-.06-10.11.07,1,.47.34.4,1.52.1-.42-.13-1.94-.47-1.95a21.48,21.48,0,0,1,.2-6.24l-.34.53c-.57-1.52.4-3.86.07-6.56v.06c-.07-.87-.9-1.61-.73-3.2C97.9,85.92,97.87,86.78,98.28,86.69Z" transform="translate(-0.5)"/><path class="cls-3" d="M97.47,77.2l.47.88c.1-1-.5-2.17-.8-2,.1.65-.1,1.51.17,1.62C97.37,77.62,97.54,77.63,97.47,77.2Z" transform="translate(-0.5)"/><path class="cls-3" d="M97.34,59.12c-.11-.35-.28-.26-.42-.41.07,3.83.27,8.55-.09,10.07-.14,1.29.57,1.52.74,3.14l-.47.73c.3.87-.2,3.55.57,2.6.07-.1-.37-.76-.23-1.51l.27.12-.1-1.73.33.55c.47-2.36-1-1.65-.71-4.54l.67,0a18.65,18.65,0,0,1,.2-4.61s-.34,0-.2.32c0,.32-.3.73-.5.51-.54-2.92.4.45.67-1.59-.47-2.49-.87-7.24-.33-8.61-.4,1.17-.84-.56-.8-2,.23-.64.4.44.6.67a6.59,6.59,0,0,0,.13-1.82c-.37.84-.87.29-1.11-1.22C96.16,53.17,97.4,55.79,97.34,59.12Z" transform="translate(-0.5)"/><path class="cls-3" d="M96.77,58.14a1,1,0,0,0,.15.57c0-.45,0-.9,0-1.33Z" transform="translate(-0.5)"/><path class="cls-3" d="M19.12,439c-.39.09-.17.28.9.24l.76-.33Z" transform="translate(-0.5)"/><path class="cls-3" d="M26.35,439.6c1.26-.16,2.72-.44,1.9-.75-1.25.32-1.55.19-2.9.56-1.08,0-1.88-.11-1.69-.23a15.18,15.18,0,0,0-2.25.14,17.8,17.8,0,0,0,5,.05C26.83,439.46,26.44,439.54,26.35,439.6Z" transform="translate(-0.5)"/><path class="cls-3" d="M131.37,440.12l-.68,0C130.88,440.1,131.11,440.11,131.37,440.12Z" transform="translate(-0.5)"/><path class="cls-3" d="M196.44,440.3a2.06,2.06,0,0,0-.73.07C196.17,440.35,196.55,440.33,196.44,440.3Z" transform="translate(-0.5)"/><path class="cls-3" d="M207.55,440.67l-.65,0A2.72,2.72,0,0,0,207.55,440.67Z" transform="translate(-0.5)"/><path class="cls-3" d="M131.37,440.12l1.74.1C133.23,440.12,132.22,440.14,131.37,440.12Z" transform="translate(-0.5)"/><path class="cls-3" d="M40.83,438.81a9.38,9.38,0,0,0-.94.09l.89,0Z" transform="translate(-0.5)"/><path class="cls-3" d="M102.68,440.39h-.53a3.84,3.84,0,0,0-.44.13Z" transform="translate(-0.5)"/><path class="cls-3" d="M80.67,440.44a1.21,1.21,0,0,0,.86-.39,3.38,3.38,0,0,1-1.09.19C80.44,440.29,80.5,440.36,80.67,440.44Z" transform="translate(-0.5)"/><path class="cls-3" d="M45.76,439.94l-.62,0Z" transform="translate(-0.5)"/><path class="cls-3" d="M118.44,440.45a.44.44,0,0,0,.2.1S118.56,440.48,118.44,440.45Z" transform="translate(-0.5)"/><path class="cls-3" d="M734.15,438.34s0,0,0,.05S734.32,438.34,734.15,438.34Z" transform="translate(-0.5)"/><path class="cls-3" d="M759.67,439.73l-.35,0a.31.31,0,0,0-.08.16Z" transform="translate(-0.5)"/><path class="cls-3" d="M227.88,441h-.09C227.25,441.05,227.56,441,227.88,441Z" transform="translate(-0.5)"/><path class="cls-3" d="M414.52,440.82c-2.11-.25,3.44-.32.26-.6C415.08,440.33,411.89,440.66,414.52,440.82Z" transform="translate(-0.5)"/><path class="cls-3" d="M41.4,438.84h.9C41.89,438.83,41.62,438.83,41.4,438.84Z" transform="translate(-0.5)"/><path class="cls-3" d="M414.78,440.22h0l-.33,0Z" transform="translate(-0.5)"/><path class="cls-3" d="M274.72,440.86a2.11,2.11,0,0,0-.48-.12S274.37,440.8,274.72,440.86Z" transform="translate(-0.5)"/><path class="cls-3" d="M239.82,440.46l.86,0C240.35,440.47,240.07,440.46,239.82,440.46Z" transform="translate(-0.5)"/><path class="cls-3" d="M292.84,440.46a8.56,8.56,0,0,0,1.27,0l-.19,0A4.27,4.27,0,0,1,292.84,440.46Z" transform="translate(-0.5)"/><path class="cls-3" d="M311.7,440.46l-.35-.06-.6,0Z" transform="translate(-0.5)"/><path class="cls-3" d="M676.83,438.47a4,4,0,0,1,.87.25C677.41,438.52,680.18,438.45,676.83,438.47Z" transform="translate(-0.5)"/><path class="cls-3" d="M40.84,439a1.15,1.15,0,0,1,.56-.12l-.63,0C40.72,438.9,40.71,438.94,40.84,439Z" transform="translate(-0.5)"/><path class="cls-3" d="M293.61,438.24l3,0C295.77,438.26,294.68,438.24,293.61,438.24Z" transform="translate(-0.5)"/><path class="cls-3" d="M541.52,438.51l.69,0A3.69,3.69,0,0,0,541.52,438.51Z" transform="translate(-0.5)"/><path class="cls-3" d="M305.5,438.24a14.38,14.38,0,0,0,1.69.19,2.21,2.21,0,0,0,.35-.07Z" transform="translate(-0.5)"/><path class="cls-3" d="M677.71,438.73h0Z" transform="translate(-0.5)"/><path class="cls-3" d="M697.45,438.06c-2.86,0-1.34.36-1.95.57-3.41.1-1.58-.27-2.74-.46-2.13.1-3.76.44-5.35.42-.12-.06-.43-.08-.07-.16-2.25.29-6.68,0-9.3.38a1.16,1.16,0,0,1-.34-.09c.42.18.49.37.4.51a10.46,10.46,0,0,1-2.86,0,3.45,3.45,0,0,0,1.22-.17l-1.34.11c-1.21-.35,1.83-.12,1.83-.38-2.62.11-5.66.4-7.67.3-.42-.34,4.69-.11,2-.42l3.1.13c-2.37-.54,1.88,0-.29-.54-4.08-.1-4.56.17-8.63.07-.92.19.3.28-.61.47-5.79.34-4.55-.85-8.81-.4a10.14,10.14,0,0,1-4.56.43l1-.38c-4,0-2.26.55-6.39.29.74-.15,3.11-.13,2.51-.17-2.68-.3-1.9.22-4,.22l-.43-.34c-4.21.05-8.84.3-13.5.36.26-.1,1.06-.21,0-.31-5.88.17-12.54,0-18.21-.24l-2.17.29c-.5,0-.93-.13-.39-.19-2.21-.11-.11.19-1.18.3-1.26,0-1.66-.17-.86-.26a136.31,136.31,0,0,1-15.21.22l.8-.09c-3.2-.12-3.61.6-6.57.33l.57-.05c-6.94-.13-14.61.14-19.91-.3-1,.42-6.87-.19-7.32.4-4-.29-2.83-.4-8.41-.59-1.49,0-2.22.37-4.06.43l0-.31-2.5.32-1.33-.37-1.73.08c.69,0,1.46.14,1.36.23a30.49,30.49,0,0,1-6.65-.37l-6.39.26a10.5,10.5,0,0,1,2.06-.25c-3.41.31-.62-.32-3.74,0,.42.07-.23.18-.3.25a70.43,70.43,0,0,0-7.73-.11l.5-.21c-4.74-.05-10,.1-15.31.1,1.91.1,1.47.47-.09.5l-.62-.33c-1,.2,1.63.12-.44.37-2,0-1.34-.37-.19-.48l-2.41.11c-.14-.1.42-.15.57-.27-1,.2-4.17-.33-5.6,0l-.14-.1c-5.32,0-7.73.11-12.06.13-.08.28-1.78.22-3.07.45-3.18-.09-6.71-.31-10.55-.29-2.69.14-.79.24-2,.41-.2-.26-4-.23-2-.42-4.6,0-5.88.05-11.7.26.63.11,1.34.15,1,.24-1.06,0-2.4-.11-2.25-.23l.28,0c-6.53.38-15.08-.75-20.28-.21l.29,0-5.39.28c-2.48,0,1.49-.19-.35-.35-5.82.43-9.19-.06-14,.22-3.71-.76-13.16.05-18.17-.43l.29.18a9,9,0,0,1-2.52-.14c.14.14,1.4.16.6.26-11,.21-22.63-.26-33.86-.42-4.11,0-2.33.92-7.51.5l1.47-.33c-8.29.4-17,0-25.08.32a4.68,4.68,0,0,1,1.29-.17,27,27,0,0,0-6.37.18c-1.26,0-.29-.18-1.07-.28-1.72-.14-4.32.31-5.23.07-.16,0,.48-.08.8-.1-1.12.12-5.22,0-4.15.25-3-.13-5.83.12-8.26,0-1.59.31-5.22-.15-5.72.29.22-.45-5.34-.36-7.27-.15.65-.14-1.68-.14-.92-.33-2.2,0-4.21.09-3.83.32-4.05-.54-8.14.44-10.42-.26-6.53.24-12.58.41-18.45.51.21-.45,6.5,0,6.24-.52-5.57.19-8.79.57-14.32.46-1.43-.06.81-.2,1.3-.27-5.57.19-10.77,0-15.72.2a5.16,5.16,0,0,1,1.05-.12c-1,0-2.27-.07-2.16.14l1-.06c1.56.3-3.88.62-4.05.78,1.66-.59-4.89-.15-2.26-.89-.64,0-1.45.14-1.3.27-1,0-1.26-.12-.29-.28-3.5.11-2.26.33-5.42.33,0-.1.65-.14,1-.25a34.38,34.38,0,0,1-5.9.3c.16-.06-.15-.14.65-.14-4.6,0-7.84.52-12.89.33,1.49-.43-1.72-.14-2-.52l-2.71.11,1.09.18c-2.38,0-4.48.27-6.52.14l1.77-.15-4.45.07,2.52.14c-2.41.19.26.47-2.91.37.64,0-2.38,0-3.62-.22h0a24.4,24.4,0,0,1-4.14.15c-.46-.12.37-.41.07-.49-1.16.31-5.57.09-7,.42.49-.08.52-.27.35-.31l-1,.25c-1.1-.08-1.26-.12-1.08-.28-3.31,0,1.05.47-2.88.27.31,0,.16-.06.8-.1-3.95-.11-7.63.16-11.26,0-1.07-.38,3.17-.09,1.94-.41-5.23.07-10.83.45-15.89.36l.94,0c-.7.53-3.77-.26-6.33,0,.63,0,.82-.29.65-.24-3.47-.09-7.09.13-12.34.3l.65-.14c-2-.12-5.38-.07-7.59-.13-.65.14-1.92.11-1.15.31-6.8-.78-13,.42-19-.23.72,0,1.72-.12,1.15-.12l-5.14.13c.41.23.67.14,1.75.32a20.7,20.7,0,0,1-3.38.24c2.31-.15,0-.37-1-.5.17.07-.17.15-.09.22-2.69-.41-.45.46-4.12.19l.19-.12c-1.37.06-2.64.22-4.12.19-.61-.27,1.46-.12,1.56-.34-2.08,0-4.1.51-6,.24.88-.07,2.15-.08,3-.15a21.5,21.5,0,0,0-3.81-.28h.15L83,438.91l.9.08c-2.6.7-5.3.13-8.8.58,3.41-.43.56-.25.82-.55-.89-.08-2.26-.18-1.87-.26-1.66.24-2.77-.19-5.1.16-.1-.1-1.77,0-1.4-.25-2.15.08.51.17.33.29-3.32.33-7.8-.4-12.58.05-4.12.19-4.88.52-8.7.68-1.29-.16,1.06-.36,1.06-.36a41.11,41.11,0,0,0-5.61,0c.4-.09,0-.16-.61-.27-1.57,0-1.05.36-3.13.21a8.74,8.74,0,0,1,1.57-.39c-1.85.09-3.69.27-5.6.36-.51-.17,1.16-.26,1.83-.37a43.44,43.44,0,0,0-6.26.42l1.38.1c-.79,0-.4-.23.18-.28a4.83,4.83,0,0,1,2.77.19l-1.37.06c1.4.57,5.49-.09,8.24-.06l-1.15.42,2.82-.35c.6.11,1,.34-.35.4,2,.21,1.75-.15,3.44.08.19,0,.1.06-.07.07l1.93-.12c-.38.09.32.29-.86.23,3.46.24,5.58-.31,6.88,0l-.29,0c4.8-.14.46-.31,4.06-.66l2.42.75.47-.31c.5,0,1.47,0,1.29.16,1.84-.21-.31-.13.76-.33,2.38.28,6.57-.13,7.11.36.86-.23-2.28-.18.27-.34.73.52,2.94-.09,5.12.15-.67.27-2.73.13-.55.37,1.31-.46,4.24.1,6.08,0,.09-.36,4-.15,7.08-.27-.19.12,5.8.2,8.67.33l-.08.06c.55-.37,3.51-.3,5.67-.37-.08.22-.47.31-1.64.4h2a12.21,12.21,0,0,1,2.42-.22l-.51.27c2.69,0,5.43-.32,8.89-.14.19-.26-2.76-.71.91-.88.14.14.27.38-.69.43a11.53,11.53,0,0,1,1.75-.06l-1.46.23c1.58.1.83-.19,2.09-.17,0,.2.93.14.75.3a14.13,14.13,0,0,0-1.58,0,24.59,24.59,0,0,1,3.71.3c-.12-.11,0-.27,1-.29,2.69,0,.92.24,2.49.34.65-.14,2.37,0,2.42-.29a3,3,0,0,1,1.24.22c1.39-.13,6.51,0,4.94-.35l-.36,0h.23c4.57-.29,9.49.17,14,0v.1c2.71-.11,6-.07,8-.28.8,0,1.89.18,1.55.3a38.11,38.11,0,0,1,5.29,0c-2.08.17.72.15-2.13.13a36,36,0,0,0,6.18,0c-1,.25,2,.32,3.3.24l-1.88-.18c1.44,0,2.69,0,4,0l-.69.33c5.5.4,9.92-.69,14.11,0,1.46-.23-3-.16-1.69-.44,2.53,0,5.17.52,6,.52,3.47.18,3.23-.49,6.86-.36-.46-.12-.9-.44,1.81-.55,2.53,0,3.11.5,1.51.59-.61,0-.9,0-.87-.07-.82,0-1.89.09-.89.22l.33-.12c1.26.12,4.74.11,3.92.3,1.91-.11.82-.19-.6-.26,3.25.17,5.08,0,8.42.12-.53-.07-1-.2-.49-.2,4.9.15,2.16-.23,5.48-.28,1.89.18-.68.43,2.67.28,2,.12.43.31-.38.41a59.58,59.58,0,0,1,7.44.19l-1.61.1c1-.06,1.75-.06,2.55-.05l-.92-.24a6.13,6.13,0,0,1,1.72.14c1-.16-.74-.39,1.18-.61,1.26.12,3.83-.13,4.26.19-4-.11.44.32-2.91.37a23.78,23.78,0,0,1,2.38,0c.14,0-.13.07-.39.08,3.78.28,1.74-.36,5.66-.35-.5.18.91.34,1.55.3-1.58,0-.76-.3.69-.43a35.22,35.22,0,0,0,4-.09l-1.5-.07a19.78,19.78,0,0,1,3.52-.21c.15.14-1.59.1-1,.16,1.95-.31,4.4.32,7.11.11,1.26.12.12.33,1.23.42,3-.23,3.29.24,6.49.05-.92-.24-1.08-.18,1.17-.41l-5.25.17,3.37-.35c-1.59,0-3.35.15-4.29.11,1.61-.19,1.44-.14.68-.33,2.17.36,4.3-.21,6.81,0l-.08.59c3.77.26,6.7-.3,11.59-.15l-1.57-.1c.66-.23,3,0,4.61-.13-.15.2.84.27,1.52.39-.08-.15,3.58,0,4-.38l2.19.26c4,.11,4.51-.56,8.31-.5-1.14.21.58.35-2,.51a8.92,8.92,0,0,0,2.43-.1c.74.12,3.52-.27,4.68-.08a6.52,6.52,0,0,1,2.13-.28c.16,0,0,.1,0,.1s2.23-.13,1-.35c3.91.62,10.92,0,14.32.48,2.77-.07,6.1-.13,8.62-.14-.16.06,0,.1-.48.08,3.47.18,2.13-.57,6.08-.36,2,.32-2.1.17-.84.29.55.65,4.76-.09,7.42.29l-.64,0c2,.22,5-.25,8.27-.2,0,0-.16.06,0,.1,2.27-.33,6.56-.44,9.75-.53-1,.25-1.45.13-.84.39,1.43,0-.42-.41,2.43-.49.93.14,3,.26,3.26.54h-2.69c1.38.36,3.48,0,4.9,0l-.18.16c4.13-.05,4.18-.44,8.62-.42l-.46-.12c2.42-.39,2,.22,4.45-.07l.73.39c1.6-.1,5.6-.38,8.47-.46-1.62.29-5,.44-7.06.62a56.82,56.82,0,0,0,6.21-.22,14.58,14.58,0,0,1-2.07.07,49.9,49.9,0,0,1,7.66-.46c-.56.77,8.23.19,10.52.79,5.59-.28,11.08.12,17.59.08-2.31-.6,1.9,0,1.5-.63a15.33,15.33,0,0,1,2.23,0l4.59.37c1.09.18-1.44.13-1.3.27,3.32,0,1.39.26,3.59.42-.45-.22,1.15-.31,3-.23l-2.66-.28c4.64-.33,4,.51,8.69.19l-1.48.19c2.4-.11,8.85,0,11.2-.49.42.07,1,.24-.07.28,5.73.07,12.76-.52,17.22-.22l-.43.15a16.72,16.72,0,0,1,3.2-.13c-.07.06-.43.15.06.16a34.18,34.18,0,0,1,4.26-.17l-1.21.17c5.59.2,8.58-.41,13.27-.51,0,.44,4.39.58,6.59.65l-.08.06c6.51.05,11.06-.36,17.09-.54,3.74.48,12.68.2,18.7.47-.92-.08.15-.34,1.22-.39,1.41.09,3.9-.31,3.68.1h-.5c1.06.4,4,.29,6.23.3l.37-.53c5.93.77,15.53-.28,18.76.41,1.43-.13,3.2-.13,4.62-.26l-.08.28c4,.07,5.94.11,10.84,0l-1,.2c2.76,0,3.49-.82,6-.83l.77.42c4.82,0,9.7.36,14.46,0-.08.06-.22.18-1,.2,2.27,0,8.78.29,8-.29.06.38,5,0,7.58-.13l-.41.28a27.43,27.43,0,0,1,5.34-.55c.73,0,.64.22-.33.15,2.42.15,1.89-.26,4.83-.12l-1.09.18a13.69,13.69,0,0,0,3.67-.28,19.32,19.32,0,0,1,5.1.32,9.69,9.69,0,0,1,3.17-.29c.2.1-.34.15-.61.18,4.17.19,6.2-.32,9.07-.05.06.09.25.14.48.17-3.31,0-6,0-5.73,0,0,.26,2.68.3.55.66a69.66,69.66,0,0,1,8.43-.49,1.91,1.91,0,0,1,.34.09l-.27,0a12.73,12.73,0,0,0,1.65,0c.83,0,1.36.07,2.16.08a27.16,27.16,0,0,0,4.4.13c-.11-.28,1.64-.24,0-.47.21,0-.25,0-1.14,0l-.57,0,.09,0-3.32,0a14.08,14.08,0,0,1,3.63-.11c.68-.18,1.44-.37,1.86-.45,1.83.39,5.34.6,5.83.85,4.07-.16,9.59-.1,12.15-.63a4,4,0,0,1,1.76.23c-.67.05-1.46,0-1.83.12,2.32-.14,6.86-.05,7.41-.42,2.92.17-1.64.34,2.37.28l-.54.11c7.89.59,12.82-.94,21.57-.18a4.25,4.25,0,0,1-1-.13c10,.33,20.55-.31,30.38.22a21.25,21.25,0,0,0,4.81-.31l.61.3,2.92-.35c4.14-.26,7.17.74,12.4.26l-.68-.2c1.88,0,6-.12,5.65.11a3.08,3.08,0,0,1,1.35-.11l.06.16,4.62-.27c3.58.11-.56.63,4.67.66,1.94-.06,5.53-.46,4.8-.57a5.69,5.69,0,0,1-2.06-.26l1.78-.08c.32-.47,1.69-.94-2.67-1.27l-3,.28-1-.23h2.56a10.87,10.87,0,0,0-3.4.1,3.81,3.81,0,0,0-1.27-.25l-3,.44c-.36-.18,1.34-.36-.66-.46-1.4.21,1.34.41-1,.54a6.18,6.18,0,0,0-2.74-.2c-.24-.12.12-.2.8-.25-1.52.14-4,.06-4.81.31-1.52-.26-5.13.07-5-.37a32.16,32.16,0,0,1-4.07.36c2.55-.53-5.23,0-4.55-.6-1.89.47-6.82.21-10.16.47a3.32,3.32,0,0,1,.85-.09c-1.88,0-2.43-.18-3.64-.27-.24.39-3.17.48-4.75.72-2.31-.38,1.4-.46.68-.82.12.32-4,.32-3.22.58a7.93,7.93,0,0,1-2.43-.44c-.31.49-1.64.08-3.11.38-2.55-.24-.66-.46-3.46-.31C695,438.23,697.45,438.06,697.45,438.06Zm-66.69.85h0l1.38,0Zm-5.6,0h2.43c.2.1,0,.2-.58.19C627.31,439,626,439,625.15,438.91ZM637,440.86a3.34,3.34,0,0,1-1.31-.07l1.55,0,.1,0A1,1,0,0,1,637,440.86Z" transform="translate(-0.5)"/><path class="cls-3" d="M638.6,440.49l.37,0-.53-.06-.31.09Z" transform="translate(-0.5)"/><path class="cls-3" d="M130.57,440.07h.12l-.25,0Z" transform="translate(-0.5)"/><polygon class="cls-3" points="547.26 438.37 547.27 438.44 547.76 438.38 547.26 438.37"/><path class="cls-3" d="M99.71,439.11a1.56,1.56,0,0,0-.41-.07A2,2,0,0,0,99.71,439.11Z" transform="translate(-0.5)"/><path class="cls-3" d="M86.37,439l-1.89-.1C85.3,439,85.9,439,86.37,439Z" transform="translate(-0.5)"/><path class="cls-3" d="M76.12,438.91a.47.47,0,0,0-.2.12h0Z" transform="translate(-0.5)"/><path class="cls-3" d="M239.12,438.58h.4C240.44,438.51,239.81,438.53,239.12,438.58Z" transform="translate(-0.5)"/><path class="cls-3" d="M190.61,439.23c.51-.05,1-.1,1.56-.13C191.31,439.08,190.64,439.07,190.61,439.23Z" transform="translate(-0.5)"/><path class="cls-3" d="M293.28,438.24h0Z" transform="translate(-0.5)"/><path class="cls-3" d="M194.43,439.11a17.87,17.87,0,0,0-2.26,0C192.88,439.12,193.71,439.15,194.43,439.11Z" transform="translate(-0.5)"/><path class="cls-3" d="M31.69,438.78H31.2s0,0-.06,0Z" transform="translate(-0.5)"/><path class="cls-3" d="M31.14,438.81l-.55,0A2.3,2.3,0,0,0,31.14,438.81Z" transform="translate(-0.5)"/><path class="cls-3" d="M29.43,438.92l1.15-.07A5,5,0,0,0,29.43,438.92Z" transform="translate(-0.5)"/><path class="cls-3" d="M45.26,438.91l.16-.1C45.33,438.83,45.28,438.86,45.26,438.91Z" transform="translate(-0.5)"/><path class="cls-3" d="M49.39,438.88c-1,0-2.47-.22-3.84-.15l-.13.08C46.06,438.66,48.45,439.05,49.39,438.88Z" transform="translate(-0.5)"/><path class="cls-3" d="M66.6,440.14l-3.46-.08c.6.11,1.4.25-.17.28C67.33,440.66,62.07,440.1,66.6,440.14Z" transform="translate(-0.5)"/><path class="cls-3" d="M77.31,440.3c-1.86.05,0,.16-.08.22C78.42,440.42,78.7,440.39,77.31,440.3Z" transform="translate(-0.5)"/><path class="cls-3" d="M154.75,440.3l-.19.26C156,440.52,154.58,440.45,154.75,440.3Z" transform="translate(-0.5)"/><polygon class="cls-3" points="169.05 438.98 167.66 438.82 167 439.05 169.05 438.98"/><polygon class="cls-3" points="177.8 440.8 177.17 440.83 179.56 440.74 177.8 440.8"/><path class="cls-3" d="M308.35,440.71l-.43-.32C306.95,440.45,306.75,440.8,308.35,440.71Z" transform="translate(-0.5)"/><path class="cls-3" d="M364.49,440.39a10.3,10.3,0,0,0,3.16.1C366.4,440.47,365.14,440.35,364.49,440.39Z" transform="translate(-0.5)"/><polygon class="cls-3" points="532.38 440.9 531.25 441 533.37 440.92 532.38 440.9"/><path class="cls-3" d="M781.88,443.46c.76,1,.76,2.69-.36,3.28-.86.45-2-.77-2.83.29-.19-.17.09-.26,0-.41-.73.72-2.38.73-3.52.9-.33.24,0,.6-.08.88-1.62.25-2.27-.9-4,.25a1.42,1.42,0,0,1-1.55,0c-.39-1.53.15-2.83-.28-4.22a3.21,3.21,0,0,0-.62-1.09c-.62-.59-3.25-.87-4.62-1.1-4.53-.76-10.23-.39-14.35-.61-1.27-.06-2.49.44-3.56-.17.17-.51-.33-1.15-.18-1.67.22-.18.71-.8,1.35-.24,5.23.29,10.69-.66,15.74.62,1.66-.31,3.13.45,4.68.78-.12-2.07-2.66-2.71-3.52-3.51a2.39,2.39,0,0,1,.7-2c.36-.32.52.44.85.24.31-.74.07-1.16,1-1.69,2.21,1.16,4,3.16,6.15,4.73,2.43,1.78,5.52,2.85,8,4.58C781.24,443.41,781.58,443.3,781.88,443.46Zm-10.89,1c.36.48,0,1.25.46,1.47-.1-.43.44-.73.61-1.11C771.68,444.85,771.41,444.23,771,444.48Z" transform="translate(-0.5)"/><path class="cls-4" d="M160,62.74c.09.16,1.48-.9,1.5-.87.36.62-2.22,5.58-2.22,5.58l12.75-7.36c.08.14-9.08,9.41-9.05,9.47.63,1.09,9.74-7.41,10.51-6.07,0,0-15.54,11.32-15.36,11.63,0,0,19.46-14.3,20.79-12,.09.15-22,16.44-22,16.44l30.94-17.86c.63,1.09-27.25,19.92-27.25,19.92.88,1.52,31.26-18.86,31.61-18.25C193,64.64,160.87,80.93,163,84.61c1.74,3,28.38-18.77,29.41-17L160.56,89.22c2,3.42,28.44-18.57,29.37-17,.83,1.43-28.79,17.41-27.69,19.32.15.26,29.94-19.56,30.93-17.86,0,0-34.06,17.55-31.82,21.44,2.06,3.57,30.52-21.16,32.05-18.51,0,0-34.41,22.78-34.19,23.18,1.55,2.68,31.07-18.48,31.3-18.07,0,0-32.76,18.12-31.26,20.72,1,1.65,27.44-19.65,29.09-16.79,0,0-28,17.13-26.89,19.06.91,1.57,25.74-17.14,26.72-15.43.45.78-29.36,20.63-29.28,20.78.67,1.16,33.47-19.32,33.47-19.32l-29.91,21.62c2.08,3.6,27.32-15.77,27.32-15.77,2,3.46-30.9,21.55-30.59,22.08.71,1.24,28-17.23,28.43-16.41L158.11,123s29.55-20.65,31.1-18c1.1,1.9-31.51,18.76-30.67,20.21,1.21,2.1,32.43-19.58,32.8-18.94.51.88-33.23,21.49-33.23,21.49,1.38,2.4,28.54-16.76,28.66-16.55l-26.27,19.57c.57,1,25.7-18.74,27.39-15.81.61,1.06-30.82,19.82-30.45,20.46,1.29,2.24,34.2-20.52,34.53-19.94,1.19,2.06-32.63,21.44-32.63,21.44,2.05,3.56,32.53-22.11,34-19.62,1.23,2.12-33.06,18.59-31.44,21.39,1.26,2.19,25.85-14.92,25.85-14.92.26.45-27,19.56-27,19.56s32.17-19,32.36-18.68c1.7,2.95-33.82,22.87-33.82,22.87,1,1.81,33.51-20.33,33.93-19.59,2,3.42-30.85,21.77-30.85,21.77.94,1.63,28.7-16.65,28.73-16.59.91,1.58-30.16,20.31-29.57,21.32.89,1.54,29.79-19.77,30.9-17.84,0,0-35.44,21.76-34.12,24l29.57-17.07s-26.47,18-25.87,19.05c1.33,2.3,25.88-19,27.65-16,.12.2-29.11,17.13-27.54,19.85s27.34-17.71,28.17-16.26l-30.81,21.17c.68,1.18,31.86-23,33.86-19.55.23.4-34.45,23.36-34.45,23.36,2.08,3.59,28-17.51,28.56-16.49L162.68,177.3l27.93-16.13c.23.41-29.32,17.55-27.83,20.12l29.45-17c1,1.75-33.17,18-31.24,21.34,1.28,2.22,27.73-20.78,29.8-17.2l-29.61,19.71c.42.73,28.41-17.38,28.84-16.65.82,1.41-29.14,17.79-28.44,19,1.12,1.93,28.06-18.33,29-16.73.41.7-31.71,21.13-31.71,21.13.39.68,29.55-19.58,30.64-17.69.52.91-28,17.28-26.54,19.85l30.21-17.44c1,1.73-35.46,24.26-35.46,24.26,2,3.48,32-21.19,33.19-19.16.3.53-28.81,16.91-27.59,19s28.06-16.2,28.06-16.2-35.71,23.1-34.79,24.69l33.49-19.34s-30.66,16.62-28.59,20.21c0,0,27.47-17.27,28.08-16.21l-27,18.91c.49.84,29.48-18.58,30.16-17.41.5.86-32.71,18-30.53,21.78,0,0,29.35-20.14,30.73-17.74,2.05,3.55-31.87,20.16-30.71,22.16.22.38,29.28-17.31,29.46-17,1,1.66-35.12,22.76-34.42,24,0,0,29.28-21.61,31.32-18.08,0,0-26.75,17.39-25.84,19,.13.23,25.21-19.51,27.35-15.79,1.21,2.09-32.73,18.53-31.12,21.32.12.21,33.79-19.51,33.79-19.51.62,1.08-37.42,20.54-35.34,24.15.77,1.34,32.18-21.31,33.36-19.26,1.37,2.37-29.81,16.81-28.27,19.47,1.38,2.39,27.94-20.71,29.92-17.28l-35,23.27c2,3.51,29.12-20.37,30.66-17.7,0,0-26.68,17.27-25.49,19.33,2.06,3.57,27.84-16.07,27.84-16.07,1.61,2.79-29.33,19-28.59,20.25l28.44-16.42c.57,1-28.82,19.63-28.82,19.63.85,1.48,23.9-17.38,25.45-14.7.91,1.57-26.09,17.18-25.84,17.62,0,0,29-19.32,30.11-17.39,2.28,3.94-30.11,20.58-30.11,20.58,1.24,2.15,25.56-18,27-15.57l-28.06,19.16c2.05,3.56,32.68-18.87,32.68-18.87,2,3.45-34.49,20.07-33.47,21.84l29.76-17.18c.79,1.38-29,17.12-27.24,20.16.88,1.52,26-15,26-15,.94,1.64-27.45,17.92-26.46,19.63,0,0,27.11-19.61,28.83-16.64.38.65-33.12,17.92-30.9,21.76.79,1.37,31.63-19.8,32.29-18.64,1.9,3.28-31.71,19.85-31.17,20.8,0,0,29.23-18.45,29.91-17.27,0,0-32.51,17.57-30.76,20.59,0,0,31-18.37,31.22-18,1.46,2.53-29.23,17.08-27.47,20.13.19.33,23.44-13.53,23.44-13.53.67,1.15-25.8,16-24.3,18.55,1.22,2.1,25-19.1,27-15.59,0,0-26,17.14-25.86,17.44,1.16,2,25.73-18,27.07-15.63.06.11-32.43,22.07-32.12,22.61,1.82,3.16,28.31-17,28.59-16.5,1.16,2-25.55,15.66-24.56,17.38,0,0,30.34-17.51,30.34-17.51,1.7,3-31.31,18.39-29.55,21.43.37.64,29.25-18.52,30-17.3,2.09,3.61-35.24,21.5-33.9,23.83,1.13,2,28.72-16.58,28.72-16.58.32.55-25.64,18.18-25.64,18.18,1.13,2,24.05-18.39,26-15l-31.43,22.72S189,305.13,189.7,306.3c1.07,1.85-27,19.52-26.9,19.63l24.41-14.09c1.73,3-26.34,16.83-25.55,18.2,1.37,2.38,24.68-16.22,25.54-14.74.61,1.05-24.52,15.89-23.92,16.93,2.06,3.57,28.57-18.2,29.31-16.92.34.59-31.85,21.55-31.85,21.55l31.45-18.16c2.31,4-32.67,17.09-30.84,20.26.82,1.43,31.73-18.32,31.73-18.32s-32.16,17.6-30.06,21.23c1.31,2.26,24.88-17.89,26.41-15.25l-29.34,20.82c.25.44,27.66-16.29,27.8-16,1.45,2.51-26.72,19.21-26.69,19.26s29.95-18.16,30.33-17.51c0,0-32.13,20.78-31.43,22,0,0,29.33-17.9,29.75-17.18,1.55,2.69-28.79,18.57-28,19.88,1,1.77,30.52-17.62,30.52-17.62.83,1.44-31.23,19-29.94,21.25,0,0,24.87-16.9,26-15,0,.05-29.91,18.14-29.19,19.41s32.43-18.76,32.44-18.73S160.84,367,161.73,368.51c0,0,27-18.72,28.34-16.36,1,1.8-31.83,19.25-30.81,21,1.83,3.17,30.71-17.73,30.71-17.73s-30.15,20.37-29.52,21.45c.07.13,30.09-17.37,30.09-17.37C192.51,363,160.1,380,160.1,380c2.08,3.61,30.8-18.32,31-17.92,0,0-30.41,19.07-29.19,21.19,1.59,2.76,25.68-18.37,27.21-15.71C190,369,162,383.9,163.2,386c.93,1.61,23-15.68,24-13.86,0,0-25.48,17.38-24.87,18.44,1.87,3.24,29.55-17.76,29.86-17.24,0,0-35.46,18.59-33.42,22.12,1.43,2.49,29.93-21.68,31.83-18.38l-28.29,20.43c.79,1.38,23.22-16.62,24.61-14.21l-29.19,19.73c1,1.78,32-22.15,33.58-19.39,1.43,2.48-30.51,19.84-30.29,20.23,0,0,28.36-18.56,29.31-16.92,2.17,3.76-33.16,20.88-32.27,22.43,1.89,3.28,29.24-19.71,30.46-17.59,1.84,3.19-27,15.91-25.73,18.12,1.6,2.77,30.31-17.5,30.31-17.5s-35,17.64-32.71,21.68C161.46,416,188.27,398,188.27,398c.95,1.64-29.37,16.59-27.67,19.54,0,0,27.63-18.33,28.66-16.55l-27.89,20.58c.17.29,28-17.46,28.58-16.5,1.13,2-33.74,20.52-32.87,22,.73,1.26,29.78-17.19,29.78-17.19,1.13,2-28,20.17-28,20.17,1.26,2.17,32-18.5,32-18.5,2,3.46-32.5,20.92-32.14,21.52.12.2,32-18.48,32-18.48.47.81-33.72,21.8-33,23,.09.15,33.38-20,33.71-19.46,2,3.46-32.74,17.53-30.84,20.82,0,0,29.92-19,30.65-17.7,0,0-21.39,15.81-20.92,16.63.8,1.38,16.28-9.4,16.28-9.4.71,1.22-11.09,9.55-11.09,9.55.77,1.34,15-8.66,15-8.66s-10.76,9.16-10.33,9.9c.21.36,6.65-3.84,6.65-3.84a22.35,22.35,0,0,1,.25,3.1c.07.12,3.64-2.19,3.68-2.12" transform="translate(-0.5)"/><path class="cls-5" d="M200,48.74c.09.16,1.48-.9,1.5-.87.36.62-2.22,5.58-2.22,5.58l12.75-7.36c.08.14-9.08,9.41-9.05,9.47.63,1.09,9.74-7.41,10.51-6.07,0,0-15.54,11.32-15.36,11.63,0,0,19.46-14.3,20.79-12,.09.15-22,16.44-22,16.44l30.94-17.86c.63,1.09-27.25,19.92-27.25,19.92.88,1.52,31.26-18.86,31.61-18.25C233,50.64,200.87,66.93,203,70.61c1.74,3,28.38-18.77,29.41-17L200.56,75.22c2,3.42,28.44-18.57,29.37-17,.83,1.43-28.79,17.41-27.69,19.32.15.26,29.94-19.56,30.93-17.86,0,0-34.06,17.55-31.82,21.44,2.06,3.57,30.52-21.16,32.05-18.51,0,0-34.41,22.78-34.19,23.18,1.55,2.68,31.07-18.48,31.3-18.07,0,0-32.76,18.12-31.26,20.72,1,1.65,27.44-19.65,29.09-16.79,0,0-28,17.13-26.89,19.06.91,1.57,25.74-17.14,26.72-15.43.45.78-29.36,20.63-29.28,20.78.67,1.16,33.47-19.32,33.47-19.32L202.47,98.39c2.08,3.6,27.32-15.77,27.32-15.77,2,3.46-30.9,21.55-30.59,22.08.71,1.24,28-17.23,28.43-16.41L198.11,109s29.55-20.65,31.1-18c1.1,1.9-31.51,18.76-30.67,20.21,1.21,2.1,32.43-19.58,32.8-18.94.51.88-33.23,21.49-33.23,21.49,1.38,2.4,28.54-16.76,28.66-16.55l-26.27,19.57c.57,1,25.7-18.74,27.39-15.81.61,1.06-30.82,19.82-30.45,20.46,1.29,2.24,34.2-20.52,34.53-19.94,1.19,2.06-32.63,21.44-32.63,21.44,2.05,3.56,32.53-22.11,34-19.62,1.23,2.12-33.06,18.59-31.44,21.39,1.26,2.19,25.85-14.92,25.85-14.92.26.45-27,19.56-27,19.56s32.17-19,32.36-18.68c1.7,2.95-33.82,22.87-33.82,22.87,1,1.81,33.51-20.33,33.93-19.59,2,3.42-30.85,21.77-30.85,21.77.94,1.63,28.7-16.65,28.73-16.59.91,1.58-30.16,20.31-29.57,21.32.89,1.54,29.79-19.77,30.9-17.84,0,0-35.44,21.76-34.12,24l29.57-17.07s-26.47,18-25.87,19.05c1.33,2.3,25.88-19,27.65-16,.12.2-29.11,17.13-27.53,19.85s27.34-17.71,28.17-16.26l-30.81,21.17c.68,1.18,31.86-23,33.86-19.55.23.4-34.45,23.36-34.45,23.36,2.08,3.59,28-17.51,28.56-16.49L202.68,163.3l27.93-16.13c.23.41-29.32,17.55-27.83,20.12l29.45-17c1,1.75-33.17,18-31.24,21.34,1.28,2.22,27.73-20.78,29.8-17.2l-29.61,19.71c.42.73,28.41-17.38,28.83-16.65.82,1.41-29.14,17.79-28.44,19,1.12,1.93,28.06-18.33,29-16.73.41.7-31.71,21.13-31.71,21.13.39.68,29.55-19.58,30.64-17.69.52.91-28,17.28-26.54,19.85l30.21-17.44c1,1.73-35.46,24.26-35.46,24.26,2,3.48,32-21.19,33.19-19.16.3.53-28.81,16.91-27.59,19s28.06-16.2,28.06-16.2-35.71,23.1-34.79,24.69l33.49-19.34s-30.66,16.62-28.59,20.21c0,0,27.47-17.27,28.08-16.21l-27,18.91c.49.84,29.48-18.58,30.15-17.41.5.86-32.71,18-30.53,21.78,0,0,29.35-20.14,30.73-17.74,2.05,3.55-31.87,20.16-30.71,22.16.22.38,29.28-17.31,29.46-17,1,1.66-35.12,22.76-34.41,24,0,0,29.28-21.61,31.32-18.08,0,0-26.75,17.39-25.84,19,.13.23,25.21-19.51,27.35-15.79,1.21,2.09-32.73,18.53-31.12,21.32.12.21,33.79-19.51,33.79-19.51.62,1.08-37.42,20.54-35.34,24.15.77,1.34,32.18-21.31,33.36-19.26,1.37,2.37-29.81,16.81-28.27,19.47,1.38,2.39,27.94-20.7,29.92-17.28l-35,23.27c2,3.51,29.12-20.37,30.66-17.7,0,0-26.68,17.27-25.49,19.33,2.06,3.57,27.84-16.07,27.84-16.07,1.61,2.79-29.33,19-28.59,20.25l28.44-16.42c.57,1-28.82,19.63-28.82,19.63.85,1.48,23.9-17.38,25.45-14.7.91,1.57-26.09,17.17-25.84,17.62,0,0,29-19.32,30.11-17.39,2.28,3.94-30.11,20.58-30.11,20.58,1.24,2.15,25.56-18,27-15.57l-28.06,19.16c2.05,3.56,32.68-18.87,32.68-18.87,2,3.45-34.49,20.07-33.47,21.84l29.76-17.18c.79,1.38-29,17.12-27.23,20.16.88,1.52,26-15,26-15,.94,1.63-27.45,17.92-26.46,19.63,0,0,27.11-19.61,28.83-16.64.38.65-33.12,17.92-30.9,21.76.79,1.37,31.63-19.8,32.29-18.64,1.9,3.28-31.71,19.85-31.17,20.8,0,0,29.23-18.45,29.91-17.27,0,0-32.51,17.57-30.76,20.59,0,0,31-18.37,31.21-18,1.46,2.53-29.23,17.08-27.47,20.13.19.33,23.44-13.53,23.44-13.53.67,1.15-25.79,16-24.3,18.55,1.22,2.1,25-19.1,27-15.59,0,0-26,17.14-25.86,17.44,1.16,2,25.73-18,27.07-15.63.06.11-32.43,22.07-32.12,22.61,1.82,3.16,28.31-17,28.58-16.5,1.16,2-25.55,15.66-24.55,17.38,0,0,30.34-17.51,30.34-17.51,1.7,3-31.31,18.39-29.55,21.43.37.64,29.25-18.52,30-17.3,2.09,3.61-35.24,21.5-33.9,23.83,1.13,2,28.72-16.58,28.72-16.58.32.55-25.64,18.18-25.64,18.18,1.13,2,24.05-18.39,26-15l-31.43,22.72S229,291.13,229.7,292.3c1.07,1.85-27,19.52-26.9,19.63l24.41-14.09c1.73,3-26.34,16.83-25.55,18.2,1.37,2.38,24.68-16.22,25.54-14.74.61,1.05-24.52,15.89-23.92,16.93,2.06,3.57,28.57-18.2,29.31-16.92.34.59-31.85,21.55-31.85,21.55l31.45-18.16c2.31,4-32.67,17.09-30.84,20.26.82,1.43,31.73-18.32,31.73-18.32s-32.16,17.6-30.06,21.23c1.31,2.26,24.88-17.89,26.41-15.25l-29.33,20.82c.25.44,27.66-16.29,27.8-16,1.45,2.51-26.72,19.21-26.69,19.26s29.95-18.16,30.32-17.51c0,0-32.13,20.78-31.43,22,0,0,29.33-17.9,29.75-17.18,1.55,2.69-28.79,18.57-28,19.88,1,1.77,30.52-17.62,30.52-17.62.83,1.44-31.23,19-29.94,21.25,0,0,24.87-16.9,26-15,0,.05-29.91,18.14-29.18,19.4s32.43-18.76,32.44-18.73S200.84,353,201.73,354.51c0,0,27-18.72,28.33-16.36,1,1.8-31.83,19.25-30.81,21,1.83,3.17,30.7-17.73,30.7-17.73s-30.15,20.37-29.52,21.45c.07.13,30.09-17.37,30.09-17.37C232.51,349,200.1,366,200.1,366c2.08,3.61,30.8-18.32,31-17.92,0,0-30.41,19.07-29.19,21.19,1.59,2.76,25.68-18.37,27.21-15.71C230,355,202,369.9,203.2,372c.93,1.61,23-15.68,24-13.86,0,0-25.48,17.38-24.87,18.44,1.87,3.24,29.55-17.76,29.85-17.24,0,0-35.46,18.59-33.42,22.12,1.43,2.49,29.93-21.68,31.83-18.38l-28.29,20.43c.79,1.38,23.22-16.62,24.61-14.21l-29.19,19.73c1,1.78,32-22.14,33.58-19.39,1.43,2.48-30.51,19.84-30.29,20.23,0,0,28.36-18.56,29.31-16.92,2.17,3.76-33.16,20.88-32.27,22.43,1.89,3.28,29.24-19.71,30.46-17.59,1.84,3.19-27,15.91-25.73,18.12,1.6,2.77,30.31-17.5,30.31-17.5s-35,17.64-32.71,21.68C201.46,402,228.27,384,228.27,384c.95,1.64-29.37,16.59-27.66,19.54,0,0,27.63-18.33,28.66-16.55l-27.89,20.58c.17.29,28-17.46,28.58-16.5,1.13,2-33.74,20.52-32.87,22,.73,1.26,29.77-17.19,29.77-17.19,1.13,2-28,20.17-28,20.17,1.26,2.17,32-18.5,32-18.5,2,3.46-32.49,20.92-32.14,21.52.12.2,32-18.48,32-18.48.47.81-33.72,21.8-33,23,.09.15,33.37-20,33.71-19.46C233.62,408,195.91,423,198,426.56c0,0,32.5-20.62,33.3-19.23,0,0-32.15,21.52-31.46,22.71,1.23,2.13,26.82-15.49,26.82-15.49,1.59,2.76-27.09,18.78-27.09,18.78,1.66,2.87,31-17.89,31-17.89.1.17-34.38,21-33.17,23.09.86,1.49,29.49-17,29.49-17,1.59,2.75-23.93,17.12-23.93,17.12,1.21,2.09,27.22-17.22,27.87-16.09,0,0-16.5,13.44-16.41,13.6,0,0,14.4-9.82,15.05-8.69.28.48-12,8-11.22,9.36s9.16-5.57,9.28-5.36c0,0-8.87,6.83-8.42,7.61s13.08-7.55,13.08-7.55S229,437.32,229,437.4s1.64-1.2,1.75-1" transform="translate(-0.5)"/><path class="cls-6" d="M240,277.74c.09.16,1.48-.9,1.5-.87.36.62-2.22,5.58-2.22,5.58l12.75-7.36c.08.14-9.08,9.41-9.05,9.47.63,1.09,9.74-7.41,10.51-6.07,0,0-15.54,11.32-15.36,11.63,0,0,19.46-14.3,20.79-12,.09.15-22,16.44-22,16.44l30.94-17.86c.63,1.09-27.25,19.92-27.25,19.92.88,1.52,31.26-18.86,31.61-18.25.74,1.28-31.36,17.57-29.23,21.25,1.74,3,28.38-18.77,29.41-17l-31.84,21.59c2,3.42,28.44-18.57,29.37-17,.83,1.43-28.79,17.41-27.69,19.32.15.26,29.95-19.56,30.93-17.86,0,0-34.06,17.55-31.82,21.44,2.06,3.57,30.53-21.16,32.06-18.51,0,0-34.42,22.78-34.19,23.18,1.55,2.68,31.07-18.48,31.3-18.07,0,0-32.77,18.12-31.26,20.72,1,1.65,27.44-19.66,29.09-16.8,0,0-28,17.13-26.89,19.06.91,1.57,25.74-17.14,26.73-15.43.45.78-29.37,20.63-29.28,20.78.67,1.16,33.47-19.32,33.47-19.32l-29.91,21.62c2.08,3.6,27.32-15.77,27.32-15.77,2,3.46-30.9,21.55-30.6,22.08.71,1.24,28-17.23,28.43-16.42L238.11,338s29.55-20.65,31.11-18c1.1,1.9-31.51,18.77-30.67,20.22,1.21,2.1,32.43-19.58,32.8-18.94.51.88-33.23,21.5-33.23,21.5,1.38,2.4,28.54-16.77,28.67-16.55l-26.27,19.57c.57,1,25.7-18.75,27.4-15.82.61,1.06-30.83,19.83-30.46,20.46,1.29,2.24,34.2-20.52,34.54-19.94,1.19,2.06-32.63,21.45-32.63,21.45,2.06,3.56,32.54-22.12,34-19.62,1.23,2.12-33.07,18.6-31.45,21.4,1.26,2.19,25.85-14.93,25.85-14.93.26.45-27,19.57-27,19.57s32.18-19,32.37-18.69c1.7,3-33.83,22.87-33.83,22.87,1,1.81,33.52-20.34,33.94-19.6,2,3.43-30.85,21.77-30.85,21.77.94,1.63,28.7-16.65,28.74-16.59.91,1.58-30.16,20.31-29.58,21.32.89,1.55,29.8-19.77,30.91-17.84,0,0-35.45,21.76-34.13,24.05l29.58-17.08s-26.48,18-25.87,19.06c1.33,2.3,25.89-19.05,27.66-16,.12.2-29.12,17.14-27.54,19.86s27.35-17.71,28.18-16.27l-30.82,21.18c.68,1.18,31.87-23,33.87-19.56.23.4-34.46,23.37-34.46,23.37,2.08,3.6,28-17.52,28.57-16.5l-24.8,18.45,27.94-16.13c.23.41-29.33,17.55-27.84,20.13l29.46-17c1,1.75-33.18,18-31.25,21.35,1.28,2.22,27.74-20.79,29.81-17.21l-29.62,19.71c.42.73,28.43-17.38,28.85-16.65.82,1.41-29.15,17.8-28.45,19,1.12,1.94,28.07-18.34,29-16.74.41.7-31.72,21.14-31.72,21.14.39.68,29.56-19.59,30.65-17.7.52.91-28,17.29-26.55,19.86l30.22-17.45c1,1.73-35.48,24.27-35.48,24.27,2,3.48,32-21.2,33.21-19.17.3.53-28.82,16.92-27.61,19s28.08-16.21,28.08-16.21-35.72,23.11-34.81,24.7l33.51-19.35s-30.68,16.63-28.61,20.22c0,0,27.48-17.27,28.09-16.22l-27,18.92c.49.84,29.49-18.59,30.17-17.42.5.87-32.73,18-30.54,21.79,0,0,29.37-20.15,30.75-17.75,1.73,3-26.59,17.52-25.61,19.21.18.31,24.21-14.31,24.36-14.06.64,1.1-22.64,16.1-22.17,16.92,0,0,17.87-13.1,19.08-11,0,0-6.86,7.34-6.57,7.84,0,.08,7.32-6,8.09-4.67.29.51-6.44,6.16-6,6.84,0,0,8.71-5,8.71-5" transform="translate(-0.5)"/><path class="cls-7" d="M280,43.74c.09.16,1.48-.9,1.5-.87.36.62-2.22,5.58-2.22,5.58l12.75-7.36c.08.14-9.08,9.41-9.05,9.47.63,1.09,9.74-7.41,10.51-6.07,0,0-15.54,11.32-15.36,11.63,0,0,19.46-14.3,20.79-12,.09.15-22,16.44-22,16.44l30.94-17.86c.63,1.09-27.25,19.92-27.25,19.92.88,1.52,31.26-18.86,31.61-18.25C313,45.64,280.87,61.93,283,65.61c1.74,3,28.38-18.77,29.41-17L280.56,70.22c2,3.42,28.44-18.57,29.37-17,.83,1.43-28.79,17.41-27.69,19.32.15.26,29.94-19.56,30.93-17.86,0,0-34.06,17.55-31.82,21.44,2.06,3.57,30.52-21.16,32.05-18.51,0,0-34.41,22.78-34.19,23.18,1.55,2.68,31.07-18.48,31.3-18.07,0,0-32.76,18.12-31.26,20.72,1,1.65,27.44-19.65,29.09-16.79,0,0-28,17.13-26.89,19.06.91,1.57,25.74-17.14,26.72-15.43.45.78-29.36,20.63-29.28,20.78.67,1.16,33.47-19.32,33.47-19.32L282.47,93.39c2.08,3.6,27.32-15.77,27.32-15.77,2,3.46-30.9,21.55-30.59,22.08.71,1.24,28-17.23,28.43-16.41L278.11,104s29.55-20.65,31.1-18c1.1,1.9-31.51,18.76-30.67,20.21,1.21,2.1,32.43-19.58,32.8-18.94.51.88-33.23,21.49-33.23,21.49,1.38,2.4,28.54-16.76,28.66-16.55l-26.27,19.57c.57,1,25.7-18.74,27.39-15.81.61,1.06-30.82,19.82-30.45,20.46,1.29,2.24,34.2-20.52,34.53-19.94,1.19,2.06-32.63,21.44-32.63,21.44,2.05,3.56,32.53-22.11,34-19.62,1.23,2.12-33.06,18.59-31.44,21.39,1.26,2.19,25.85-14.92,25.85-14.92.26.45-27,19.56-27,19.56s32.17-19,32.36-18.68c1.7,2.95-33.82,22.87-33.82,22.87,1,1.81,33.51-20.33,33.93-19.59,2,3.42-30.85,21.77-30.85,21.77.94,1.63,28.7-16.65,28.73-16.59.91,1.58-30.16,20.31-29.57,21.32.89,1.54,29.79-19.77,30.9-17.84,0,0-35.44,21.76-34.12,24l29.57-17.07s-26.47,18-25.87,19.05c1.33,2.3,25.88-19,27.65-16,.12.2-29.11,17.13-27.53,19.85s27.34-17.71,28.17-16.26l-30.81,21.17c.68,1.18,31.86-23,33.86-19.55.23.4-34.45,23.36-34.45,23.36,2.08,3.59,28-17.51,28.56-16.49L282.68,158.3l27.93-16.13c.23.41-29.32,17.55-27.83,20.12l29.45-17c1,1.75-33.17,18-31.24,21.34,1.28,2.22,27.73-20.78,29.8-17.2l-29.61,19.71c.42.73,28.41-17.38,28.83-16.65.82,1.41-29.14,17.79-28.44,19,1.12,1.93,28.06-18.33,29-16.73.41.7-31.71,21.13-31.71,21.13.39.68,29.55-19.58,30.64-17.69.52.91-28,17.28-26.54,19.85l30.21-17.44c1,1.73-35.46,24.26-35.46,24.26,2,3.48,32-21.19,33.19-19.16.3.53-28.81,16.91-27.59,19s28.06-16.2,28.06-16.2-35.71,23.1-34.79,24.69l33.49-19.34s-30.66,16.62-28.59,20.21c0,0,27.47-17.27,28.08-16.21l-27,18.91c.49.84,29.48-18.58,30.15-17.41.5.86-32.71,18-30.53,21.78,0,0,29.35-20.14,30.73-17.74,2.05,3.55-31.87,20.16-30.71,22.16.22.38,29.28-17.31,29.46-17,1,1.66-35.12,22.76-34.41,24,0,0,29.28-21.61,31.32-18.08,0,0-26.75,17.39-25.84,19,.13.23,25.21-19.51,27.35-15.79,1.21,2.09-32.73,18.53-31.12,21.32.12.21,33.79-19.51,33.79-19.51.62,1.08-37.42,20.54-35.34,24.15.77,1.34,32.18-21.31,33.36-19.26,1.37,2.37-29.81,16.81-28.27,19.47,1.38,2.39,27.94-20.7,29.92-17.28l-35,23.27c2,3.51,29.12-20.37,30.66-17.7,0,0-26.68,17.27-25.49,19.33,2.06,3.57,27.84-16.07,27.84-16.07,1.61,2.79-29.33,19-28.59,20.24l28.44-16.42c.57,1-28.82,19.63-28.82,19.63.85,1.48,23.9-17.38,25.45-14.69.91,1.57-26.09,17.17-25.84,17.62,0,0,29-19.32,30.11-17.39,2.28,3.94-30.11,20.58-30.11,20.58,1.24,2.15,25.56-18,27-15.57l-28.06,19.16c2.05,3.56,32.68-18.87,32.68-18.87,2,3.45-34.49,20.07-33.47,21.84l29.76-17.18c.79,1.38-29,17.12-27.23,20.16.88,1.52,26-15,26-15,.94,1.63-27.45,17.91-26.46,19.63,0,0,27.11-19.61,28.83-16.64.38.65-33.12,17.92-30.9,21.76.79,1.37,31.63-19.8,32.29-18.64,1.9,3.28-31.71,19.85-31.17,20.8,0,0,29.23-18.45,29.91-17.27,0,0-32.51,17.57-30.76,20.59,0,0,31-18.37,31.21-18,1.46,2.53-29.23,17.08-27.47,20.13.19.33,23.44-13.53,23.44-13.53.67,1.15-25.79,16-24.3,18.55,1.22,2.1,25-19.1,27-15.59,0,0-26,17.14-25.86,17.44,1.16,2,25.73-18,27.07-15.63.06.11-32.43,22.07-32.12,22.61,1.82,3.16,28.31-17,28.58-16.5,1.16,2-25.55,15.66-24.55,17.38,0,0,30.34-17.51,30.34-17.51,1.7,3-31.31,18.39-29.55,21.43.37.64,29.25-18.52,30-17.3,2.09,3.61-35.24,21.5-33.9,23.83,1.13,2,28.72-16.58,28.72-16.58.32.55-25.64,18.18-25.64,18.18,1.13,2,24.05-18.39,26-15l-31.43,22.72S309,286.13,309.7,287.3c1.07,1.85-27,19.52-26.9,19.63l24.41-14.09c1.73,3-26.34,16.83-25.55,18.2,1.37,2.38,24.68-16.22,25.54-14.74.61,1.05-24.52,15.89-23.92,16.93,2.06,3.57,28.57-18.2,29.3-16.92.34.59-31.85,21.55-31.85,21.55l31.45-18.15c2.31,4-32.67,17.09-30.84,20.26.82,1.43,31.73-18.32,31.73-18.32s-32.16,17.6-30.06,21.23c1.31,2.26,24.88-17.89,26.4-15.24l-29.33,20.82c.25.44,27.66-16.29,27.8-16,1.45,2.51-26.72,19.21-26.69,19.26s29.95-18.16,30.32-17.51c0,0-32.13,20.78-31.43,22,0,0,29.33-17.9,29.75-17.18,1.55,2.69-28.79,18.56-28,19.88,1,1.77,30.52-17.62,30.52-17.62.83,1.44-31.23,19-29.94,21.25,0,0,24.87-16.9,26-15,0,.05-29.91,18.14-29.18,19.4s32.42-18.76,32.44-18.73S280.84,348,281.73,349.51c0,0,27-18.72,28.33-16.36,1,1.8-31.83,19.25-30.81,21,1.83,3.17,30.7-17.73,30.7-17.73s-30.15,20.37-29.52,21.45c.07.13,30.09-17.37,30.09-17.37C312.51,344,280.1,361,280.1,361c2.08,3.61,30.8-18.32,31-17.92,0,0-30.41,19.07-29.19,21.19,1.59,2.76,25.68-18.37,27.21-15.71C310,350,282,364.9,283.2,367c.93,1.61,23-15.68,24-13.86,0,0-25.48,17.38-24.87,18.44,1.87,3.24,29.55-17.76,29.85-17.24,0,0-35.46,18.59-33.42,22.12,1.43,2.49,29.93-21.68,31.83-18.38l-28.29,20.43c.79,1.38,23.22-16.62,24.61-14.21l-29.18,19.73c1,1.78,32-22.14,33.58-19.39,1.43,2.48-30.51,19.84-30.29,20.23,0,0,28.36-18.56,29.31-16.92,2.17,3.76-33.16,20.88-32.27,22.43,1.89,3.28,29.24-19.71,30.46-17.59,1.84,3.19-27,15.91-25.73,18.12,1.6,2.77,30.31-17.5,30.31-17.5s-35,17.64-32.71,21.68C281.46,397,308.27,379,308.27,379c.95,1.64-29.37,16.59-27.66,19.54,0,0,27.63-18.33,28.66-16.55l-27.89,20.58c.17.29,28-17.46,28.58-16.5,1.13,2-33.74,20.52-32.87,22,.73,1.26,29.77-17.19,29.77-17.19,1.13,2-28,20.17-28,20.17,1.26,2.17,32-18.5,32-18.5,2,3.46-32.49,20.92-32.14,21.52.12.2,32-18.48,32-18.48.47.81-33.72,21.8-33,23,.09.15,33.37-20,33.71-19.46C313.62,403,275.91,418,278,421.56c0,0,32.5-20.62,33.3-19.23,0,0-32.15,21.52-31.46,22.71,1.23,2.13,26.82-15.49,26.82-15.49,1.59,2.76-27.09,18.78-27.09,18.78,1.66,2.87,31-17.89,31-17.89.1.17-34.38,21-33.17,23.09.86,1.49,29.49-17,29.49-17,1.85,3.21-28.21,19.59-28.21,19.59,1.41,2.44,31.38-19.88,32.15-18.56,0,0-25.21,18.38-25.08,18.61,0,0,22.77-15.36,23.73-13.7.47.81-21.17,12.15-19.89,14.36s17.76-10.72,18-10.37c0,0-17.94,11.16-17.09,12.62,1.06,1.83,21.75-12.56,21.75-12.56s-11.94,10.71-11.82,10.9c0,0,9.77-7.17,10.43-6,0,0-6.12,5.1-5.63,5.95,0,0,3.62-3,4-2.32.09.16-.8,2.56-.67,2.8,0,.07,1.46-.94,1.5-.87" transform="translate(-0.5)"/><path class="cls-4" d="M410,142.74c.09.16,1.48-.9,1.5-.87.36.62-2.22,5.58-2.22,5.58l12.75-7.36c.08.14-9.08,9.41-9.05,9.47.63,1.09,9.74-7.41,10.51-6.07,0,0-15.54,11.32-15.36,11.63,0,0,19.46-14.3,20.79-12,.09.15-22,16.44-22,16.44l30.94-17.86c.63,1.09-27.25,19.92-27.25,19.92.88,1.52,31.26-18.86,31.61-18.25.74,1.28-31.36,17.57-29.23,21.25,1.74,3,28.38-18.77,29.41-17l-31.84,21.59c2,3.42,28.44-18.57,29.37-17,.83,1.43-28.79,17.41-27.69,19.32.15.26,29.94-19.56,30.93-17.86,0,0-34.06,17.55-31.82,21.44,2.06,3.57,30.52-21.16,32.06-18.51,0,0-34.42,22.78-34.19,23.18,1.55,2.68,31.07-18.48,31.3-18.07,0,0-32.76,18.12-31.26,20.72,1,1.65,27.44-19.65,29.09-16.79,0,0-28,17.13-26.89,19.06.91,1.57,25.74-17.14,26.72-15.43.45.78-29.36,20.63-29.28,20.78.67,1.16,33.47-19.32,33.47-19.32l-29.91,21.62c2.08,3.6,27.32-15.77,27.32-15.77,2,3.46-30.9,21.55-30.59,22.08.71,1.24,28-17.23,28.43-16.41L408.11,203s29.55-20.65,31.1-18c1.1,1.9-31.51,18.77-30.67,20.22,1.21,2.1,32.43-19.58,32.8-18.94.51.88-33.23,21.49-33.23,21.49,1.38,2.4,28.54-16.76,28.66-16.55l-26.27,19.57c.57,1,25.7-18.75,27.39-15.81.61,1.06-30.82,19.82-30.45,20.46,1.29,2.24,34.2-20.52,34.53-19.94,1.19,2.06-32.63,21.44-32.63,21.44,2.05,3.56,32.53-22.11,34-19.62,1.23,2.12-33.06,18.59-31.45,21.39,1.26,2.19,25.85-14.92,25.85-14.92.26.45-27,19.56-27,19.56s32.17-19,32.36-18.68c1.7,2.95-33.82,22.87-33.82,22.87,1,1.81,33.51-20.33,33.94-19.59,2,3.43-30.85,21.77-30.85,21.77.94,1.63,28.7-16.65,28.73-16.59.91,1.58-30.16,20.31-29.57,21.32.89,1.55,29.79-19.77,30.9-17.84,0,0-35.44,21.76-34.12,24l29.58-17.08s-26.47,18-25.87,19.06c1.33,2.3,25.88-19,27.66-16,.12.2-29.11,17.13-27.54,19.86s27.34-17.71,28.17-16.27l-30.82,21.17c.68,1.18,31.87-23,33.86-19.55.23.4-34.45,23.37-34.45,23.37,2.08,3.59,28-17.51,28.56-16.49L412.68,257.3l27.94-16.13c.23.41-29.32,17.55-27.83,20.12l29.46-17c1,1.75-33.17,18-31.24,21.35,1.28,2.22,27.73-20.79,29.8-17.21l-29.61,19.71c.42.73,28.42-17.38,28.84-16.65.82,1.41-29.14,17.8-28.44,19,1.12,1.94,28.06-18.33,29-16.74.41.7-31.71,21.13-31.71,21.13.39.68,29.55-19.58,30.64-17.69.52.91-28,17.28-26.54,19.85l30.21-17.44c1,1.73-35.47,24.26-35.47,24.26,2,3.48,32-21.19,33.2-19.17.3.53-28.81,16.91-27.59,19s28.07-16.2,28.07-16.2-35.71,23.1-34.8,24.69l33.5-19.34s-30.66,16.62-28.6,20.21c0,0,27.47-17.27,28.08-16.21l-27,18.92c.49.84,29.48-18.58,30.16-17.41.5.87-32.72,18-30.53,21.78,0,0,29.36-20.14,30.74-17.75,2.05,3.55-31.87,20.16-30.72,22.16.22.38,29.29-17.31,29.46-17,1,1.66-35.13,22.76-34.42,24,0,0,29.29-21.61,31.32-18.08,0,0-26.75,17.4-25.84,19,.13.23,25.21-19.51,27.36-15.8,1.21,2.09-32.73,18.53-31.12,21.32.12.21,33.79-19.51,33.79-19.51.62,1.08-37.43,20.55-35.34,24.15.77,1.34,32.18-21.31,33.36-19.26,1.37,2.37-29.81,16.81-28.28,19.47,1.38,2.39,27.95-20.71,29.93-17.28l-35,23.27c2,3.51,29.13-20.37,30.67-17.71,0,0-26.68,17.27-25.49,19.33,2.06,3.57,27.84-16.07,27.84-16.07,1.61,2.79-29.33,19-28.59,20.25l28.45-16.42c.57,1-28.82,19.63-28.82,19.63.85,1.48,23.91-17.38,25.46-14.7.91,1.57-26.1,17.18-25.84,17.62,0,0,29-19.32,30.12-17.39,2.28,3.95-30.11,20.58-30.11,20.58,1.24,2.15,25.56-18,27-15.57l-28.06,19.16c2.05,3.56,32.69-18.87,32.69-18.87,2,3.45-34.49,20.08-33.47,21.84l29.77-17.19c.79,1.38-29,17.12-27.24,20.16.88,1.52,26-15,26-15,.94,1.64-27.45,17.92-26.47,19.63,0,0,27.12-19.62,28.83-16.65.38.65-33.13,17.92-30.91,21.76.79,1.37,31.63-19.8,32.3-18.65,1.9,3.28-31.72,19.85-31.17,20.8,0,0,29.23-18.45,29.91-17.27,0,0-32.51,17.57-30.77,20.59,0,0,31-18.37,31.22-18,1.46,2.53-29.23,17.08-27.47,20.13.19.33,23.45-13.54,23.45-13.54.67,1.15-25.8,16-24.3,18.55,1.22,2.11,25-19.1,27-15.59,0,0-26,17.15-25.86,17.44,1.16,2,25.73-18,27.08-15.63.06.11-32.43,22.07-32.12,22.61,1.82,3.16,28.32-17,28.59-16.51,1.16,2-25.56,15.66-24.56,17.39,0,0,30.34-17.52,30.34-17.52,1.7,3-31.31,18.39-29.56,21.43.37.64,29.26-18.52,30-17.3,2.09,3.61-35.25,21.5-33.9,23.83,1.13,2,28.73-16.58,28.73-16.58.32.55-25.65,18.18-25.65,18.18,1.13,2,24.06-18.39,26-15l-31.44,22.72S439,385.12,439.7,386.29c1.07,1.85-27,19.52-26.91,19.64l24.41-14.09c1.73,3-26.35,16.84-25.56,18.21,1.37,2.38,24.69-16.23,25.54-14.75.61,1.05-24.52,15.89-23.92,16.93,2.06,3.57,28.57-18.2,29.31-16.92.34.59-31.86,21.55-31.86,21.55l31.45-18.16c2.31,4-32.67,17.09-30.84,20.27.82,1.43,31.73-18.32,31.73-18.32S410.9,418.24,413,421.87c1.31,2.26,24.88-17.89,26.41-15.25l-29.34,20.83c.25.44,27.67-16.29,27.8-16.05,1.45,2.51-26.73,19.21-26.7,19.26s30-18.17,30.33-17.51c0,0-32.14,20.79-31.44,22,0,0,29.34-17.91,29.76-17.18,1.28,2.22-23.43,15.78-22.81,16.86.84,1.46,25.3-14.61,25.3-14.61.52.9-18.64,12.87-17.84,14.26,0,0,13.21-9.14,13.87-8,0,0-13,9.28-12.64,9.86s15.89-9.19,15.9-9.18-6.44,7.28-6.21,7.69c0,0,4.38-3.19,4.67-2.69.13.23-2.48,3.89-2.35,4.12A12.23,12.23,0,0,0,440,435" transform="translate(-0.5)"/><path class="cls-5" d="M450,134.74c.09.16,1.48-.9,1.5-.87.36.62-2.22,5.58-2.22,5.58l12.75-7.36c.08.14-9.08,9.41-9.05,9.47.63,1.09,9.74-7.41,10.51-6.07,0,0-15.54,11.32-15.36,11.63,0,0,19.46-14.3,20.79-12,.09.15-22,16.44-22,16.44l30.94-17.86c.63,1.09-27.25,19.92-27.25,19.92.88,1.52,31.26-18.86,31.61-18.25.74,1.28-31.36,17.57-29.23,21.25,1.74,3,28.38-18.77,29.41-17l-31.84,21.59c2,3.42,28.44-18.57,29.37-17,.83,1.43-28.79,17.41-27.69,19.32.15.26,29.94-19.56,30.93-17.86,0,0-34.06,17.55-31.82,21.44,2.06,3.57,30.52-21.16,32.06-18.51,0,0-34.42,22.78-34.19,23.18,1.55,2.68,31.07-18.48,31.3-18.07,0,0-32.76,18.12-31.26,20.72,1,1.65,27.44-19.65,29.09-16.79,0,0-28,17.13-26.89,19.06.91,1.57,25.74-17.14,26.72-15.43.45.78-29.36,20.63-29.28,20.78.67,1.16,33.47-19.32,33.47-19.32l-29.91,21.62c2.08,3.6,27.32-15.77,27.32-15.77,2,3.46-30.9,21.55-30.59,22.08.71,1.24,28-17.23,28.43-16.41L448.11,195s29.55-20.65,31.1-18c1.1,1.9-31.51,18.77-30.67,20.22,1.21,2.1,32.43-19.58,32.8-18.94.51.88-33.23,21.49-33.23,21.49,1.38,2.4,28.54-16.76,28.66-16.55l-26.27,19.57c.57,1,25.7-18.75,27.39-15.81.61,1.06-30.82,19.82-30.45,20.46,1.29,2.24,34.2-20.52,34.53-19.94,1.19,2.06-32.63,21.44-32.63,21.44,2.05,3.56,32.53-22.11,34-19.62,1.23,2.12-33.06,18.59-31.44,21.39,1.26,2.19,25.85-14.92,25.85-14.92.26.45-27,19.56-27,19.56s32.17-19,32.36-18.68c1.7,2.95-33.82,22.87-33.82,22.87,1,1.81,33.51-20.33,33.94-19.59,2,3.43-30.85,21.77-30.85,21.77.94,1.63,28.7-16.65,28.73-16.59.91,1.58-30.16,20.31-29.57,21.32.89,1.55,29.79-19.77,30.9-17.84,0,0-35.44,21.76-34.12,24l29.58-17.08s-26.47,18-25.87,19.06c1.33,2.3,25.88-19,27.66-16,.12.2-29.11,17.13-27.54,19.86s27.34-17.71,28.17-16.27l-30.82,21.17c.68,1.18,31.87-23,33.86-19.55.23.4-34.45,23.37-34.45,23.37,2.08,3.59,28-17.51,28.56-16.49L452.68,249.3l27.94-16.13c.23.41-29.32,17.55-27.83,20.12l29.45-17c1,1.75-33.17,18-31.24,21.35,1.28,2.22,27.73-20.79,29.8-17.21l-29.61,19.71c.42.73,28.42-17.38,28.84-16.65.82,1.41-29.14,17.8-28.44,19,1.12,1.94,28.06-18.33,29-16.73.41.7-31.71,21.13-31.71,21.13.39.68,29.55-19.58,30.64-17.69.52.91-28,17.28-26.54,19.85l30.21-17.44c1,1.73-35.47,24.26-35.47,24.26,2,3.48,32-21.19,33.2-19.17.3.53-28.81,16.91-27.59,19s28.06-16.2,28.06-16.2-35.71,23.1-34.8,24.69l33.5-19.34s-30.66,16.62-28.6,20.21c0,0,27.47-17.27,28.08-16.21l-27,18.92c.49.84,29.48-18.58,30.16-17.41.5.87-32.72,18-30.53,21.78,0,0,29.36-20.14,30.74-17.75,2.05,3.55-31.87,20.16-30.72,22.16.22.38,29.29-17.31,29.46-17,1,1.66-35.13,22.76-34.42,24,0,0,29.29-21.61,31.32-18.08,0,0-26.75,17.4-25.84,19,.13.23,25.21-19.51,27.36-15.79,1.21,2.09-32.73,18.53-31.12,21.32.12.21,33.79-19.51,33.79-19.51.62,1.08-37.43,20.55-35.34,24.15.77,1.34,32.18-21.31,33.36-19.26,1.37,2.37-29.81,16.81-28.28,19.47,1.38,2.39,27.95-20.71,29.93-17.28l-35,23.27c2,3.51,29.13-20.37,30.67-17.71,0,0-26.68,17.27-25.49,19.33,2.06,3.57,27.84-16.07,27.84-16.07,1.61,2.79-29.33,19-28.59,20.25l28.45-16.42c.57,1-28.82,19.63-28.82,19.63.85,1.48,23.91-17.38,25.46-14.7.91,1.57-26.1,17.18-25.84,17.62,0,0,29-19.32,30.12-17.39,2.28,3.95-30.11,20.58-30.11,20.58,1.24,2.15,25.56-18,27-15.57l-28.06,19.16c2.05,3.56,32.69-18.87,32.69-18.87,2,3.45-34.49,20.08-33.47,21.84l29.77-17.19c.79,1.38-29,17.12-27.24,20.16.88,1.52,26-15,26-15,.94,1.64-27.45,17.92-26.47,19.63,0,0,27.12-19.62,28.83-16.65.38.65-33.12,17.92-30.91,21.76.79,1.37,31.63-19.8,32.3-18.65,1.9,3.28-31.72,19.85-31.17,20.8,0,0,29.23-18.45,29.91-17.27,0,0-32.51,17.57-30.77,20.59,0,0,31-18.37,31.22-18,1.46,2.53-29.23,17.08-27.47,20.13.19.33,23.45-13.54,23.45-13.54.67,1.15-25.8,16-24.3,18.55,1.22,2.11,25-19.1,27-15.59,0,0-26,17.15-25.86,17.44,1.16,2,25.73-18,27.08-15.63.06.11-32.43,22.07-32.12,22.61,1.82,3.16,28.32-17,28.59-16.51,1.16,2-25.56,15.66-24.56,17.38,0,0,30.34-17.52,30.34-17.52,1.7,3-31.31,18.39-29.56,21.43.37.64,29.26-18.52,30-17.3,2.09,3.61-35.25,21.5-33.9,23.83,1.13,2,28.72-16.58,28.72-16.58.32.55-25.65,18.18-25.65,18.18,1.13,2,24.06-18.39,26-15l-31.44,22.72S479,377.12,479.7,378.29c1.07,1.85-27,19.52-26.9,19.63l24.41-14.09c1.73,3-26.35,16.84-25.56,18.21,1.37,2.38,24.69-16.23,25.54-14.75.61,1.05-24.52,15.89-23.92,16.93,2.06,3.57,28.57-18.2,29.31-16.92.34.59-31.86,21.55-31.86,21.55l31.45-18.16c2.31,4-32.67,17.09-30.84,20.27.82,1.43,31.73-18.32,31.73-18.32S450.9,410.24,453,413.87c1.31,2.26,24.88-17.89,26.41-15.25l-29.34,20.82c.25.44,27.67-16.29,27.8-16.05,1.45,2.51-26.73,19.21-26.7,19.26s30-18.17,30.33-17.51c0,0-32.14,20.79-31.44,22,0,0,29.34-17.91,29.76-17.18,1.55,2.69-28.8,18.57-28,19.88,1,1.77,30.53-17.63,30.53-17.63.83,1.44-31.24,19-29.95,21.26,0,0,24.88-16.9,26-15,0,0-27.19,16.72-26.52,17.87s29.77-17.22,29.78-17.19-20.7,14.64-20.09,15.7c0,0,17.63-12.3,18.55-10.71.55.95-15.95,11.2-15.41,12.13.89,1.54,15.31-8.84,15.31-8.84s-6.65,7.84-6.47,8.15c0,0,7-4.07,7-4.07.26.46-2.34,4.25-2.34,4.25.13.23,2.93-1.72,2.94-1.7" transform="translate(-0.5)"/><path class="cls-6" d="M490,134.74c.09.16,1.48-.9,1.5-.87.36.62-2.22,5.58-2.22,5.58l12.75-7.36c.08.14-9.08,9.41-9.05,9.47.63,1.09,9.74-7.41,10.51-6.07,0,0-15.54,11.32-15.36,11.63,0,0,19.46-14.3,20.79-12,.09.15-22,16.44-22,16.44l30.94-17.86c.63,1.09-27.25,19.92-27.25,19.92.88,1.52,31.26-18.86,31.61-18.25.74,1.28-31.36,17.57-29.23,21.25,1.74,3,28.38-18.77,29.41-17l-31.84,21.59c2,3.42,28.44-18.57,29.37-17,.83,1.43-28.79,17.41-27.69,19.32.15.26,29.94-19.56,30.93-17.86,0,0-34.06,17.55-31.82,21.44,2.06,3.57,30.52-21.16,32.06-18.51,0,0-34.42,22.78-34.19,23.18,1.55,2.68,31.07-18.48,31.3-18.07,0,0-32.76,18.12-31.26,20.72,1,1.65,27.44-19.65,29.09-16.79,0,0-28,17.13-26.89,19.06.91,1.57,25.74-17.14,26.72-15.43.45.78-29.36,20.63-29.28,20.78.67,1.16,33.47-19.32,33.47-19.32l-29.91,21.62c2.08,3.6,27.32-15.77,27.32-15.77,2,3.46-30.9,21.55-30.59,22.08.71,1.24,28-17.23,28.43-16.41L488.11,195s29.55-20.65,31.1-18c1.1,1.9-31.51,18.77-30.67,20.22,1.21,2.1,32.43-19.58,32.8-18.94.51.88-33.23,21.49-33.23,21.49,1.38,2.4,28.54-16.76,28.66-16.55l-26.27,19.57c.57,1,25.7-18.75,27.39-15.81.61,1.06-30.82,19.82-30.45,20.46,1.29,2.24,34.2-20.52,34.53-19.94,1.19,2.06-32.63,21.44-32.63,21.44,2.05,3.56,32.53-22.11,34-19.62,1.23,2.12-33.06,18.59-31.44,21.39,1.26,2.19,25.85-14.92,25.85-14.92.26.45-27,19.56-27,19.56s32.17-19,32.36-18.68c1.7,2.95-33.82,22.87-33.82,22.87,1,1.81,33.51-20.33,33.94-19.59,2,3.43-30.85,21.77-30.85,21.77.94,1.63,28.7-16.65,28.73-16.59.91,1.58-30.16,20.31-29.57,21.32.89,1.55,29.79-19.77,30.9-17.84,0,0-35.44,21.76-34.12,24l29.58-17.08s-26.47,18-25.87,19.06c1.33,2.3,25.88-19,27.66-16,.12.2-29.11,17.13-27.54,19.86s27.34-17.71,28.17-16.27l-30.82,21.17c.68,1.18,31.87-23,33.86-19.55.23.4-34.45,23.37-34.45,23.37,2.08,3.59,28-17.51,28.56-16.49L492.68,249.3l27.94-16.13c.23.41-29.32,17.55-27.83,20.12l29.45-17c1,1.75-33.17,18-31.24,21.35,1.28,2.22,27.73-20.79,29.8-17.21l-29.61,19.71c.42.73,28.42-17.38,28.84-16.65.82,1.41-29.14,17.8-28.44,19,1.12,1.94,28.06-18.33,29-16.73.41.7-31.71,21.13-31.71,21.13.39.68,29.55-19.58,30.64-17.69.52.91-28,17.28-26.54,19.85l30.21-17.44c1,1.73-35.47,24.26-35.47,24.26,2,3.48,32-21.19,33.2-19.17.3.53-28.81,16.91-27.59,19s28.06-16.2,28.06-16.2-35.71,23.1-34.8,24.69l33.5-19.34s-30.66,16.62-28.6,20.21c0,0,27.47-17.27,28.08-16.21l-27,18.92c.49.84,29.48-18.58,30.16-17.41.5.87-32.72,18-30.53,21.78,0,0,29.36-20.14,30.74-17.75,2.05,3.55-31.87,20.16-30.72,22.16.22.38,29.29-17.31,29.46-17,1,1.66-35.13,22.76-34.42,24,0,0,29.29-21.61,31.32-18.08,0,0-26.75,17.4-25.84,19,.13.23,25.21-19.51,27.36-15.79,1.21,2.09-32.73,18.53-31.12,21.32.12.21,33.79-19.51,33.79-19.51.62,1.08-37.43,20.55-35.34,24.15.77,1.34,32.18-21.31,33.36-19.26,1.37,2.37-29.81,16.81-28.28,19.47,1.38,2.39,27.95-20.71,29.93-17.28l-35,23.27c2,3.51,29.13-20.37,30.67-17.71,0,0-26.68,17.27-25.49,19.33,2.06,3.57,27.84-16.07,27.84-16.07,1.61,2.79-29.33,19-28.59,20.25l28.45-16.42c.57,1-28.82,19.63-28.82,19.63.85,1.48,23.91-17.38,25.46-14.7.91,1.57-26.1,17.18-25.84,17.62,0,0,29-19.32,30.12-17.39,2.28,3.95-30.11,20.58-30.11,20.58,1.24,2.15,25.56-18,27-15.57l-28.06,19.16c2.05,3.56,32.69-18.87,32.69-18.87,2,3.45-34.49,20.08-33.47,21.84l29.77-17.19c.79,1.38-29,17.12-27.24,20.16.88,1.52,26-15,26-15,.94,1.64-27.45,17.92-26.47,19.63,0,0,27.12-19.62,28.83-16.65.38.65-33.12,17.92-30.91,21.76.79,1.37,31.63-19.8,32.3-18.65,1.9,3.28-31.72,19.85-31.17,20.8,0,0,29.23-18.45,29.91-17.27,0,0-32.51,17.57-30.77,20.59,0,0,31-18.37,31.22-18,1.46,2.53-29.23,17.08-27.47,20.13.19.33,23.45-13.54,23.45-13.54.67,1.15-25.8,16-24.3,18.55,1.22,2.11,25-19.1,27-15.59,0,0-26,17.15-25.86,17.44,1.16,2,25.73-18,27.08-15.63.06.11-32.43,22.07-32.12,22.61,1.82,3.16,28.32-17,28.59-16.51,1.16,2-25.56,15.66-24.56,17.38,0,0,30.34-17.52,30.34-17.52,1.7,3-31.31,18.39-29.56,21.43.37.64,29.26-18.52,30-17.3,2.09,3.61-35.25,21.5-33.9,23.83,1.13,2,28.72-16.58,28.72-16.58.32.55-25.65,18.18-25.65,18.18,1.13,2,24.06-18.39,26-15l-31.44,22.72S519,377.12,519.7,378.29c1.07,1.85-27,19.52-26.9,19.63l24.41-14.09c1.73,3-26.35,16.84-25.56,18.21,1.37,2.38,24.69-16.23,25.54-14.75.61,1.05-24.52,15.89-23.92,16.93,2.06,3.57,28.57-18.2,29.31-16.92.34.59-31.86,21.55-31.86,21.55l31.45-18.16c2.31,4-32.67,17.09-30.84,20.27.82,1.43,31.73-18.32,31.73-18.32S490.9,410.24,493,413.87c1.31,2.26,24.88-17.89,26.41-15.25l-29.34,20.82c.25.44,27.67-16.29,27.8-16.05,1.45,2.51-26.73,19.21-26.7,19.26s30-18.17,30.33-17.51c0,0-32.14,20.79-31.44,22,0,0,29.34-17.91,29.76-17.18,1.55,2.69-28.8,18.57-28,19.88,1,1.77,30.53-17.63,30.53-17.63.83,1.44-31.24,19-29.95,21.26,0,0,24.88-16.9,26-15,0,0-27.19,16.72-26.52,17.87s29.77-17.22,29.78-17.19-20.7,14.64-20.09,15.7c0,0,17.63-12.3,18.55-10.71.55.95-15.95,11.2-15.41,12.13.89,1.54,15.31-8.84,15.31-8.84s-6.65,7.84-6.47,8.15c0,0,7-4.07,7-4.07.26.46-2.34,4.25-2.34,4.25.13.23,2.93-1.72,2.94-1.7" transform="translate(-0.5)"/><path class="cls-7" d="M530,136.74c.09.16,1.48-.9,1.5-.87.36.62-2.22,5.58-2.22,5.58l12.75-7.36c.08.14-9.08,9.41-9.05,9.47.63,1.09,9.74-7.41,10.51-6.07,0,0-15.54,11.32-15.36,11.63,0,0,19.46-14.3,20.79-12,.09.15-22,16.44-22,16.44l30.94-17.86c.63,1.09-27.25,19.92-27.25,19.92.88,1.52,31.26-18.86,31.61-18.25.74,1.28-31.36,17.57-29.23,21.25,1.74,3,28.38-18.77,29.41-17l-31.84,21.59c2,3.42,28.44-18.57,29.37-17,.83,1.43-28.79,17.41-27.69,19.32.15.26,29.94-19.56,30.93-17.86,0,0-34.06,17.55-31.82,21.44,2.06,3.57,30.52-21.16,32.06-18.51,0,0-34.42,22.78-34.19,23.18,1.55,2.68,31.07-18.48,31.3-18.07,0,0-32.76,18.12-31.26,20.72,1,1.65,27.44-19.65,29.09-16.79,0,0-28,17.13-26.89,19.06.91,1.57,25.74-17.14,26.72-15.43.45.78-29.36,20.63-29.28,20.78.67,1.16,33.47-19.32,33.47-19.32l-29.91,21.62c2.08,3.6,27.32-15.77,27.32-15.77,2,3.46-30.9,21.55-30.59,22.08.71,1.24,28-17.23,28.43-16.41L528.11,197s29.55-20.65,31.1-18c1.1,1.9-31.51,18.77-30.67,20.22,1.21,2.1,32.43-19.58,32.8-18.94.51.88-33.23,21.49-33.23,21.49,1.38,2.4,28.54-16.76,28.66-16.55l-26.27,19.57c.57,1,25.7-18.75,27.39-15.81.61,1.06-30.82,19.82-30.45,20.46,1.29,2.24,34.2-20.52,34.53-19.94,1.19,2.06-32.63,21.44-32.63,21.44,2.05,3.56,32.53-22.11,34-19.62,1.23,2.12-33.06,18.59-31.44,21.39,1.26,2.19,25.85-14.92,25.85-14.92.26.45-27,19.56-27,19.56s32.17-19,32.36-18.68c1.7,2.95-33.82,22.87-33.82,22.87,1,1.81,33.51-20.33,33.94-19.59,2,3.43-30.85,21.77-30.85,21.77.94,1.63,28.7-16.65,28.73-16.59.91,1.58-30.16,20.31-29.57,21.32.89,1.55,29.79-19.77,30.9-17.84,0,0-35.44,21.76-34.12,24l29.58-17.08s-26.47,18-25.87,19.06c1.33,2.3,25.88-19,27.66-16,.12.2-29.11,17.13-27.54,19.86s27.34-17.71,28.17-16.27l-30.82,21.17c.68,1.18,31.87-23,33.86-19.55.23.4-34.45,23.37-34.45,23.37,2.08,3.59,28-17.51,28.56-16.49L532.68,251.3l27.94-16.13c.23.41-29.32,17.55-27.83,20.12l29.45-17c1,1.75-33.17,18-31.24,21.35,1.28,2.22,27.73-20.79,29.8-17.21l-29.61,19.71c.42.73,28.42-17.38,28.84-16.65.82,1.41-29.14,17.8-28.44,19,1.12,1.94,28.06-18.33,29-16.73.41.7-31.71,21.13-31.71,21.13.39.68,29.55-19.58,30.64-17.69.52.91-28,17.28-26.54,19.85l30.21-17.44c1,1.73-35.47,24.26-35.47,24.26,2,3.48,32-21.19,33.2-19.17.3.53-28.81,16.91-27.59,19s28.06-16.2,28.06-16.2-35.71,23.1-34.8,24.69l33.5-19.34s-30.66,16.62-28.6,20.21c0,0,27.47-17.27,28.08-16.21l-27,18.92c.49.84,29.48-18.58,30.16-17.41.5.87-32.72,18-30.53,21.78,0,0,29.36-20.14,30.74-17.75,2.05,3.55-31.87,20.16-30.72,22.16.22.38,29.29-17.31,29.46-17,1,1.66-35.13,22.76-34.42,24,0,0,29.29-21.61,31.32-18.08,0,0-26.75,17.4-25.84,19,.13.23,25.21-19.51,27.36-15.8,1.21,2.09-32.73,18.53-31.12,21.32.12.21,33.79-19.51,33.79-19.51.62,1.08-37.43,20.55-35.34,24.15.77,1.34,32.18-21.31,33.36-19.26,1.37,2.37-29.81,16.81-28.28,19.47,1.38,2.39,27.95-20.71,29.93-17.28l-35,23.27c2,3.51,29.13-20.37,30.67-17.71,0,0-26.68,17.27-25.49,19.33,2.06,3.57,27.84-16.07,27.84-16.07,1.61,2.79-29.33,19-28.59,20.25l28.45-16.42c.57,1-28.82,19.63-28.82,19.63.85,1.48,23.91-17.38,25.46-14.7.91,1.57-26.1,17.18-25.84,17.62,0,0,29-19.32,30.12-17.39,2.28,3.95-30.11,20.58-30.11,20.58,1.24,2.15,25.56-18,27-15.57l-28.06,19.16c2.05,3.56,32.69-18.87,32.69-18.87,2,3.45-34.49,20.08-33.47,21.84l29.77-17.19c.79,1.38-29,17.12-27.24,20.16.88,1.52,26-15,26-15,.94,1.64-27.45,17.92-26.47,19.63,0,0,27.12-19.62,28.83-16.65.38.65-33.12,17.92-30.91,21.76.79,1.37,31.63-19.8,32.3-18.65,1.9,3.28-31.72,19.85-31.17,20.8,0,0,29.23-18.45,29.91-17.27,0,0-32.51,17.57-30.77,20.59,0,0,31-18.37,31.22-18,1.46,2.53-29.23,17.08-27.47,20.13.19.33,23.45-13.54,23.45-13.54.67,1.15-25.8,16-24.3,18.55,1.22,2.11,25-19.1,27-15.59,0,0-26,17.15-25.86,17.44,1.16,2,25.73-18,27.08-15.63.06.11-32.43,22.07-32.12,22.61,1.82,3.16,28.32-17,28.59-16.51,1.16,2-25.56,15.66-24.56,17.39,0,0,30.34-17.52,30.34-17.52,1.7,3-31.31,18.39-29.56,21.43.37.64,29.26-18.52,30-17.3,2.09,3.61-35.25,21.5-33.9,23.83,1.13,2,28.72-16.58,28.72-16.58.32.55-25.65,18.18-25.65,18.18,1.13,2,24.06-18.39,26-15l-31.44,22.72S559,379.12,559.7,380.29c1.07,1.85-27,19.52-26.9,19.63l24.41-14.09c1.73,3-26.35,16.84-25.56,18.21,1.37,2.38,24.69-16.23,25.54-14.75.61,1.05-24.52,15.89-23.92,16.93,2.06,3.57,28.57-18.2,29.31-16.92.34.59-31.86,21.55-31.86,21.55l31.45-18.16c2.31,4-32.67,17.09-30.84,20.27.82,1.43,31.73-18.32,31.73-18.32S530.9,412.24,533,415.87c1.31,2.26,24.88-17.89,26.41-15.25l-29.34,20.82c.25.44,27.67-16.29,27.8-16.05,1.45,2.51-26.73,19.21-26.7,19.26s30-18.17,30.33-17.51c0,0-32.14,20.79-31.44,22,0,0,29.34-17.91,29.76-17.18,1.55,2.69-28.8,18.57-28,19.88,1,1.77,30.53-17.63,30.53-17.63.79,1.36-29.47,18.16-28.24,20.27,0,0,23.24-15.81,24.28-14,0,0-23.64,14.86-23.05,15.87s26.3-15.21,26.31-15.19-17.14,12.8-16.62,13.7c0,0,14.32-10,15.08-8.7.44.75-12.37,9.38-11.94,10.13.68,1.17,11.84-6.83,11.84-6.83s-3.12,5.94-3,6.14c0,0,3.57-2.06,3.57-2.06" transform="translate(-0.5)"/><text class="cls-8" transform="translate(203.5 469.84)">5.1.281.102</text><text class="cls-8" transform="translate(434.17 469.84)">6.1.361</text><path class="cls-4" d="M610,10.9c.09.16,1.48-.9,1.5-.87.36.62-2.22,5.58-2.22,5.58l12.75-7.36c.08.14-9.08,9.41-9.05,9.47.63,1.09,9.74-7.41,10.51-6.07,0,0-15.54,11.32-15.36,11.63,0,0,19.46-14.3,20.79-12,.09.15-22,16.44-22,16.44L637.86,9.85c.63,1.09-27.25,19.92-27.25,19.92.88,1.52,31.26-18.86,31.61-18.25C643,12.79,610.87,29.08,613,32.77c1.74,3,28.38-18.78,29.42-17L610.56,37.38c2,3.42,28.45-18.58,29.38-17,.78,1.34-27,16.51-25.93,18.3.14.25,28.25-18.45,29.18-16.85,0,0-26.51,14.29-24.74,17.35,1.57,2.73,23.81-16.45,25-14.42,0,0-21.3,15.4-21.15,15.65.87,1.51,18.14-10.78,18.27-10.55,0,0-14.28,9.33-13.59,10.52.39.68,10.74-7.77,11.42-6.59,0,0-3.3,5-3.09,5.32s2.72-2,2.93-1.69c0,.07-.84,3.15-.83,3.16s5-2.9,5-2.9" transform="translate(-0.5)"/><path class="cls-5" d="M610,50.9c.09.16,1.48-.9,1.5-.87.36.62-2.22,5.58-2.22,5.58l12.75-7.36c.08.14-9.08,9.41-9.05,9.47.63,1.09,9.74-7.41,10.51-6.07,0,0-15.54,11.32-15.36,11.63,0,0,19.46-14.3,20.79-12,.09.15-22,16.44-22,16.44l30.94-17.86c.63,1.09-27.25,19.92-27.25,19.92.88,1.52,31.26-18.86,31.61-18.25C643,52.79,610.87,69.08,613,72.77c1.74,3,28.38-18.78,29.42-17L610.56,77.38c2,3.42,28.45-18.58,29.38-17,.78,1.34-27,16.51-25.93,18.3.14.25,28.25-18.45,29.18-16.85,0,0-26.51,14.29-24.74,17.35,1.57,2.73,23.81-16.45,25-14.42,0,0-21.3,15.4-21.15,15.65.87,1.51,18.14-10.78,18.27-10.55,0,0-14.28,9.33-13.59,10.52.39.68,10.74-7.77,11.42-6.59,0,0-3.3,5-3.09,5.32s2.72-2,2.93-1.69c0,.07-.84,3.15-.83,3.16s5-2.9,5-2.9" transform="translate(-0.5)"/><path class="cls-6" d="M610,90.9c.09.16,1.48-.9,1.5-.87.36.62-2.22,5.58-2.22,5.58l12.75-7.36c.08.14-9.08,9.41-9.05,9.47.63,1.09,9.74-7.41,10.51-6.07,0,0-15.54,11.32-15.36,11.63,0,0,19.46-14.3,20.79-12,.09.15-22,16.44-22,16.44l30.94-17.86c.63,1.09-27.25,19.92-27.25,19.92.88,1.52,31.26-18.86,31.61-18.25.74,1.28-31.36,17.57-29.23,21.26,1.74,3,28.38-18.78,29.42-17l-31.85,21.59c2,3.42,28.45-18.58,29.38-17,.78,1.34-27,16.51-25.93,18.3.14.25,28.25-18.45,29.18-16.85,0,0-26.51,14.29-24.74,17.35,1.57,2.73,23.81-16.45,25-14.42,0,0-21.3,15.4-21.15,15.65.87,1.51,18.14-10.78,18.27-10.55,0,0-14.28,9.33-13.59,10.52.39.68,10.74-7.77,11.42-6.59,0,0-3.3,5-3.09,5.32s2.72-2,2.93-1.69c0,.07-.84,3.15-.83,3.16s5-2.9,5-2.9" transform="translate(-0.5)"/><text class="cls-9" transform="translate(649.5 30)">curry</text><text class="cls-9" transform="translate(649.5 70)">fat <tspan class="cls-10" x="28.73" y="0">a</tspan><tspan x="38.95" y="0">rrow curry</tspan></text><text class="cls-9" transform="translate(649.5 110)">b<tspan class="cls-11" x="9" y="0">i</tspan><tspan class="cls-12" x="11.79" y="0">n</tspan><tspan x="20.48" y="0">d</tspan></text><path class="cls-7" d="M610,130.9c.09.16,1.48-.9,1.5-.87.36.62-2.22,5.58-2.22,5.58l12.75-7.36c.08.14-9.08,9.41-9.05,9.47.63,1.09,9.74-7.41,10.51-6.07,0,0-15.54,11.32-15.36,11.63,0,0,19.46-14.3,20.79-12,.09.15-22,16.44-22,16.44l30.94-17.86c.63,1.09-27.25,19.92-27.25,19.92.88,1.52,31.26-18.86,31.61-18.25.74,1.28-31.36,17.57-29.23,21.26,1.74,3,28.38-18.78,29.42-17l-31.85,21.59c2,3.42,28.45-18.58,29.38-17,.78,1.34-27,16.51-25.93,18.3.14.25,28.25-18.45,29.18-16.85,0,0-26.51,14.29-24.74,17.35,1.57,2.73,23.81-16.45,25-14.42,0,0-21.3,15.4-21.15,15.65.87,1.51,18.14-10.78,18.27-10.55,0,0-14.28,9.33-13.59,10.52.39.68,10.74-7.77,11.42-6.59,0,0-3.3,5-3.09,5.32s2.72-2,2.93-1.69c0,.07-.84,3.15-.83,3.16s5-2.9,5-2.9" transform="translate(-0.5)"/><text class="cls-9" transform="translate(649.5 150)"><tspan class="cls-13">d</tspan><tspan x="9.43" y="0">ir</tspan><tspan class="cls-12" x="20.68" y="0">e</tspan><tspan x="31.43" y="0">ct </tspan><tspan class="cls-14" x="51.77" y="0">c</tspan><tspan x="60.55" y="0">a</tspan><tspan class="cls-15" x="70.13" y="0">l</tspan><tspan class="cls-16" x="72.9" y="0">l</tspan></text><text class="cls-8" transform="translate(46.84 47)">25k</text><path class="cls-3" d="M84.94,40A.16.16,0,0,1,84.8,40s0-.1,0-.14a1.39,1.39,0,0,1,.78-.12,11.74,11.74,0,0,1,1.21.12l1.4-.26,1.43-.22q-1.13,0-2.18,0a14.58,14.58,0,0,0-2,.22.14.14,0,0,1-.1,0H85.3c-.08,0-.12,0-.13-.1s0-.11.11-.14a10.4,10.4,0,0,1,1.86-.31Q88.08,39,89,39t1.91.06q1,0,1.9,0h.41q.26.1.12.29l0,0h-.14q-.89,0-1.67,0L90,39.61l.24.07.24,0H91l.18,0,.4-.06.31-.06.4,0a2.22,2.22,0,0,1,.4,0,.52.52,0,0,1,.31.14A.22.22,0,0,1,93,40a.07.07,0,0,0,0,0s-.06.07,0,.07a1.07,1.07,0,0,1-.53.29.28.28,0,0,1-.14.24,4,4,0,0,1-.55.16l-.58.11.66.1a3.54,3.54,0,0,1,.66.17h0v0h0a.23.23,0,0,1,.06.13c0,.06,0,.08-.11.08h-.07a.14.14,0,0,1-.1,0,4,4,0,0,0-.7-.13l-.7-.08a3.6,3.6,0,0,0-.59,0,3.55,3.55,0,0,1-.59,0l-.12,0-1.7.07q-.86,0-1.63.1H87l2.51.11q1.24.06,2.51.08h.58a.14.14,0,0,1,.1,0,.2.2,0,0,1,.12.07s0,0,0,0v.12a.07.07,0,0,1,0,0v0a.26.26,0,0,1-.12.1h-.77L92,42H88.84q-1.4,0-2.82-.08h-.7a1,1,0,0,1-.35-.08.36.36,0,0,1-.2-.22,2.1,2.1,0,0,1-.46-.12.25.25,0,0,1-.16-.24.31.31,0,0,1,.18-.24,8.77,8.77,0,0,1,1.87-.37q1-.08,1.94-.11-1,0-2,.07a7,7,0,0,0-1.75.34h-.1c-.14,0-.24,0-.28-.12a.17.17,0,0,1,.11-.24v0l1-.29L86,40a5.55,5.55,0,0,0-.67,0A1,1,0,0,0,84.94,40Zm3.34,0h.26a.43.43,0,0,1,.07-.22l-.42.08-.42.08Zm1-.17H89.1S89,40,89,40h1l-.37-.1A1.43,1.43,0,0,0,89.26,39.9Z" transform="translate(-0.5)"/><text class="cls-8" transform="translate(45.84 126.65)">20k</text><path class="cls-3" d="M84.94,119.7a.16.16,0,0,1-.14-.07s0-.1,0-.14a1.39,1.39,0,0,1,.78-.12,11.74,11.74,0,0,1,1.21.12l1.4-.26,1.43-.22q-1.13,0-2.18,0a14.58,14.58,0,0,0-2,.22.14.14,0,0,1-.1,0H85.3c-.08,0-.12,0-.13-.1s0-.11.11-.14a10.4,10.4,0,0,1,1.86-.31q.95-.07,1.9-.06t1.91.06q1,0,1.9,0h.41q.26.1.12.29l0,0h-.14q-.89,0-1.67,0l-1.55.12.24.07.24,0H91l.18,0,.4-.06.31-.06.4,0a2.22,2.22,0,0,1,.4,0,.52.52,0,0,1,.31.14.22.22,0,0,1,0,.29.07.07,0,0,0,0,0s-.06.07,0,.07a1.07,1.07,0,0,1-.53.29.28.28,0,0,1-.14.24,4,4,0,0,1-.55.16l-.58.11.66.1a3.54,3.54,0,0,1,.66.17h0v0h0a.23.23,0,0,1,.06.13c0,.06,0,.08-.11.08h-.07a.14.14,0,0,1-.1,0,4,4,0,0,0-.7-.13l-.7-.08a3.6,3.6,0,0,0-.59,0,3.55,3.55,0,0,1-.59,0l-.12,0-1.7.07q-.86,0-1.63.1H87l2.51.11q1.24.06,2.51.08h.58a.14.14,0,0,1,.1,0,.2.2,0,0,1,.12.07s0,0,0,0v.12a.07.07,0,0,1,0,0v0a.26.26,0,0,1-.12.1h-.77l.1.14H88.84q-1.4,0-2.82-.08h-.7a1,1,0,0,1-.35-.08.36.36,0,0,1-.2-.22,2.1,2.1,0,0,1-.46-.12.25.25,0,0,1-.16-.24.31.31,0,0,1,.18-.24,8.77,8.77,0,0,1,1.87-.37q1-.08,1.94-.11-1,0-2,.07a7,7,0,0,0-1.75.34h-.1c-.14,0-.24,0-.28-.12a.17.17,0,0,1,.11-.24v0l1-.29,1-.26a5.55,5.55,0,0,0-.67,0A1,1,0,0,0,84.94,119.7Zm3.34,0h.26a.43.43,0,0,1,.07-.22l-.42.08-.42.08Zm1-.17H89.1s-.08.05-.11.13h1l-.37-.1A1.43,1.43,0,0,0,89.26,119.55Z" transform="translate(-0.5)"/><text class="cls-8" transform="translate(49.79 206.3)">15k</text><path class="cls-3" d="M84.94,199.35a.16.16,0,0,1-.14-.07s0-.1,0-.14a1.39,1.39,0,0,1,.78-.12,11.74,11.74,0,0,1,1.21.12l1.4-.26,1.43-.22q-1.13,0-2.18,0a14.58,14.58,0,0,0-2,.22.14.14,0,0,1-.1,0H85.3c-.08,0-.12,0-.13-.1s0-.11.11-.14a10.4,10.4,0,0,1,1.86-.31q.95-.07,1.9-.06t1.91.06q1,0,1.9,0h.41q.26.1.12.29l0,0h-.14q-.89,0-1.67,0l-1.55.12.24.07.24,0H91l.18,0,.4-.06.31-.06.4,0a2.22,2.22,0,0,1,.4,0A.52.52,0,0,1,93,199a.22.22,0,0,1,0,.29.07.07,0,0,0,0,0s-.06.07,0,.07a1.07,1.07,0,0,1-.53.29.28.28,0,0,1-.14.24,4,4,0,0,1-.55.16l-.58.11.66.1a3.54,3.54,0,0,1,.66.17h0v0h0a.23.23,0,0,1,.06.13c0,.06,0,.08-.11.08h-.07a.14.14,0,0,1-.1,0,4,4,0,0,0-.7-.13l-.7-.08a3.6,3.6,0,0,0-.59,0,3.55,3.55,0,0,1-.59,0l-.12,0-1.7.07q-.86,0-1.63.1H87l2.51.11q1.24.06,2.51.08h.58a.14.14,0,0,1,.1,0,.2.2,0,0,1,.12.07s0,0,0,0V201a.07.07,0,0,1,0,0v0a.26.26,0,0,1-.12.1h-.77l.1.14H88.84q-1.4,0-2.82-.08h-.7a1,1,0,0,1-.35-.08.36.36,0,0,1-.2-.22,2.1,2.1,0,0,1-.46-.12.25.25,0,0,1-.16-.24.31.31,0,0,1,.18-.24,8.77,8.77,0,0,1,1.87-.37q1-.08,1.94-.11-1,0-2,.07a7,7,0,0,0-1.75.34h-.1c-.14,0-.24,0-.28-.12a.17.17,0,0,1,.11-.24v0l1-.29,1-.26a5.55,5.55,0,0,0-.67,0A1,1,0,0,0,84.94,199.35Zm3.34,0h.26a.43.43,0,0,1,.07-.22l-.42.08-.42.08Zm1-.17H89.1s-.08.05-.11.13h1l-.37-.1A1.43,1.43,0,0,0,89.26,199.2Z" transform="translate(-0.5)"/><text class="cls-8" transform="translate(49.79 285.95)">10k</text><path class="cls-3" d="M84.94,279a.16.16,0,0,1-.14-.07s0-.1,0-.14a1.39,1.39,0,0,1,.78-.12,11.74,11.74,0,0,1,1.21.12l1.4-.26,1.43-.22q-1.13,0-2.18,0a14.58,14.58,0,0,0-2,.22.14.14,0,0,1-.1,0H85.3c-.08,0-.12,0-.13-.1s0-.11.11-.14a10.4,10.4,0,0,1,1.86-.31q.95-.07,1.9-.06t1.91.06q1,0,1.9,0h.41q.26.1.12.29l0,0h-.14q-.89,0-1.67,0l-1.55.12.24.07.24,0H91l.18,0,.4-.06.31-.06.4,0a2.22,2.22,0,0,1,.4,0,.52.52,0,0,1,.31.14.22.22,0,0,1,0,.29.07.07,0,0,0,0,0s-.06.07,0,.07a1.07,1.07,0,0,1-.53.29.28.28,0,0,1-.14.24,4,4,0,0,1-.55.16l-.58.11.66.1a3.54,3.54,0,0,1,.66.17h0v0h0a.23.23,0,0,1,.06.13c0,.06,0,.08-.11.08h-.07a.14.14,0,0,1-.1,0,4,4,0,0,0-.7-.13l-.7-.08a3.6,3.6,0,0,0-.59,0,3.55,3.55,0,0,1-.59,0l-.12,0-1.7.07q-.86,0-1.63.1H87l2.51.11q1.24.06,2.51.08h.58a.14.14,0,0,1,.1,0,.2.2,0,0,1,.12.07s0,0,0,0v.12a.07.07,0,0,1,0,0v0a.26.26,0,0,1-.12.1h-.77l.1.14H88.84q-1.4,0-2.82-.08h-.7a1,1,0,0,1-.35-.08.36.36,0,0,1-.2-.22,2.1,2.1,0,0,1-.46-.12.25.25,0,0,1-.16-.24.31.31,0,0,1,.18-.24,8.77,8.77,0,0,1,1.87-.37q1-.08,1.94-.11-1,0-2,.07a7,7,0,0,0-1.75.34h-.1c-.14,0-.24,0-.28-.12a.17.17,0,0,1,.11-.24v0l1-.29,1-.26a5.55,5.55,0,0,0-.67,0A1,1,0,0,0,84.94,279Zm3.34,0h.26a.43.43,0,0,1,.07-.22l-.42.08-.42.08Zm1-.17H89.1s-.08.05-.11.13h1l-.37-.1A1.43,1.43,0,0,0,89.26,278.85Z" transform="translate(-0.5)"/><text class="cls-8" transform="translate(58.19 365.6)">5k</text><path class="cls-3" d="M84.94,358.65a.16.16,0,0,1-.14-.07s0-.1,0-.14a1.39,1.39,0,0,1,.78-.12,11.74,11.74,0,0,1,1.21.12l1.4-.26,1.43-.22q-1.13,0-2.18,0a14.58,14.58,0,0,0-2,.22.14.14,0,0,1-.1,0H85.3c-.08,0-.12,0-.13-.1s0-.11.11-.14a10.4,10.4,0,0,1,1.86-.31q.95-.07,1.9-.06t1.91.06q1,0,1.9,0h.41q.26.1.12.29l0,0h-.14q-.89,0-1.67,0l-1.55.12.24.07.24,0H91l.18,0,.4-.06.31-.06.4,0a2.22,2.22,0,0,1,.4,0,.52.52,0,0,1,.31.14.22.22,0,0,1,0,.29.07.07,0,0,0,0,0s-.06.07,0,.07a1.07,1.07,0,0,1-.53.29.28.28,0,0,1-.14.24,4,4,0,0,1-.55.16l-.58.11.66.1a3.54,3.54,0,0,1,.66.17h0v0h0a.23.23,0,0,1,.06.13c0,.06,0,.08-.11.08h-.07a.14.14,0,0,1-.1,0,4,4,0,0,0-.7-.13l-.7-.08a3.6,3.6,0,0,0-.59,0,3.55,3.55,0,0,1-.59,0l-.12,0-1.7.07q-.86,0-1.63.1H87l2.51.11Q90.7,360,92,360h.58a.14.14,0,0,1,.1,0,.2.2,0,0,1,.12.07s0,0,0,0v.12a.07.07,0,0,1,0,0v0a.26.26,0,0,1-.12.1h-.77l.1.14H88.84q-1.4,0-2.82-.08h-.7a1,1,0,0,1-.35-.08.36.36,0,0,1-.2-.22,2.1,2.1,0,0,1-.46-.12.25.25,0,0,1-.16-.24.31.31,0,0,1,.18-.24,8.77,8.77,0,0,1,1.87-.37q1-.08,1.94-.11-1,0-2,.07a7,7,0,0,0-1.75.34h-.1c-.14,0-.24,0-.28-.12a.17.17,0,0,1,.11-.24v0l1-.29,1-.26a5.55,5.55,0,0,0-.67,0A1,1,0,0,0,84.94,358.65Zm3.34,0h.26a.43.43,0,0,1,.07-.22l-.42.08-.42.08Zm1-.17H89.1s-.08.05-.11.13h1l-.37-.1A1.43,1.43,0,0,0,89.26,358.5Z" transform="translate(-0.5)"/><text class="cls-8" transform="translate(67.5 445.25)">0</text><path class="cls-3" d="M84.94,438.3a.16.16,0,0,1-.14-.07s0-.1,0-.14a1.39,1.39,0,0,1,.78-.12,11.74,11.74,0,0,1,1.21.12l1.4-.26,1.43-.22q-1.13,0-2.18,0a14.58,14.58,0,0,0-2,.22.14.14,0,0,1-.1,0H85.3c-.08,0-.12,0-.13-.1s0-.11.11-.14a10.4,10.4,0,0,1,1.86-.31q.95-.07,1.9-.06t1.91.06q1,0,1.9,0h.41q.26.1.12.29l0,0h-.14q-.89,0-1.67,0l-1.55.12.24.07.24,0H91l.18,0,.4-.06.31-.06.4,0a2.22,2.22,0,0,1,.4,0,.52.52,0,0,1,.31.14.22.22,0,0,1,0,.29.07.07,0,0,0,0,0s-.06.07,0,.07a1.07,1.07,0,0,1-.53.29.28.28,0,0,1-.14.24,4,4,0,0,1-.55.16l-.58.11.66.1a3.54,3.54,0,0,1,.66.17h0v0h0a.23.23,0,0,1,.06.13c0,.06,0,.08-.11.08h-.07a.14.14,0,0,1-.1,0,4,4,0,0,0-.7-.13l-.7-.08a3.6,3.6,0,0,0-.59,0,3.55,3.55,0,0,1-.59,0l-.12,0-1.7.07q-.86,0-1.63.1H87l2.51.11q1.24.06,2.51.08h.58a.14.14,0,0,1,.1,0,.2.2,0,0,1,.12.07s0,0,0,0v.12a.07.07,0,0,1,0,0v0a.26.26,0,0,1-.12.1h-.77l.1.14H88.84q-1.4,0-2.82-.08h-.7a1,1,0,0,1-.35-.08.36.36,0,0,1-.2-.22,2.1,2.1,0,0,1-.46-.12.25.25,0,0,1-.16-.24.31.31,0,0,1,.18-.24,8.77,8.77,0,0,1,1.87-.37q1-.08,1.94-.11-1,0-2,.07a7,7,0,0,0-1.75.34h-.1c-.14,0-.24,0-.28-.12a.17.17,0,0,1,.11-.24v0l1-.29,1-.26a5.55,5.55,0,0,0-.67,0A1,1,0,0,0,84.94,438.3Zm3.34,0h.26a.43.43,0,0,1,.07-.22l-.42.08-.42.08Zm1-.17H89.1s-.08.05-.11.13h1l-.37-.1A1.43,1.43,0,0,0,89.26,438.15Z" transform="translate(-0.5)"/></g></svg>