<?xml version="1.0" encoding="utf-8"?>
<!-- Generator: Adobe Illustrator 22.1.0, SVG Export Plug-In . SVG Version: 6.00 Build 0)  -->
<svg version="1.1" id="Слой_1" xmlns="http://www.w3.org/2000/svg" xmlns:xlink="http://www.w3.org/1999/xlink" x="0px" y="0px"
	 viewBox="0 0 286.1 78" style="enable-background:new 0 0 286.1 78;" xml:space="preserve">
<style type="text/css">
	.st0{fill:#FFFFFF;}
</style>
<g>
	<g>
		<g>
			<path class="st0" d="M183.1,0v78h103V0H183.1z M215.6,32.2h-8.2V26c0-1.3-0.4-2.4-1.3-3.3c-0.9-0.9-2-1.4-3.2-1.4
				s-2.3,0.5-3.2,1.4s-1.3,2-1.3,3.3v29.2c0,1.3,0.4,2.4,1.3,3.3c0.9,0.9,1.9,1.3,3.2,1.3s2.3-0.4,3.2-1.3c0.9-0.9,1.3-2,1.3-3.3
				v-7.3h8.2v7.4c0,3.5-1.2,6.5-3.7,9c-2.4,2.5-5.4,3.7-8.8,3.7c-3.5,0-6.4-1.2-8.9-3.7c-2.4-2.5-3.6-5.5-3.6-9V26.1
				c0-3.5,1.2-6.5,3.7-9c2.4-2.5,5.4-3.7,8.8-3.7c3.5,0,6.4,1.2,8.8,3.7s3.6,5.5,3.6,9L215.6,32.2L215.6,32.2z M244.3,63.6
				c-1.3,1.8-3.1,3-5.4,3.8c-1.3,0.4-2.7,0.6-4.4,0.6c-3.1,0-5.7-0.8-7.7-2.3c-1.7-1.3-3-3-4-5.2s-1.6-4.7-1.7-7.6l7.5-0.5
				c0.3,3.1,1.2,5.3,2.4,6.7c0.9,1.1,2,1.5,3.2,1.5c1.7-0.1,3.1-0.9,4.1-2.6c0.5-0.8,0.8-2,0.8-3.5c0-2.2-1-4.4-3-6.6
				c-1.6-1.5-3.9-3.7-7-6.7c-2.6-2.6-4.5-4.9-5.5-6.9c-1.2-2.3-1.8-4.8-1.8-7.5c0-4.8,1.6-8.5,4.8-11c2-1.5,4.4-2.2,7.3-2.2
				c2.8,0,5.2,0.6,7.2,1.9c1.5,1,2.8,2.4,3.8,4.2s1.5,3.8,1.7,6.1l-7.6,1.4c-0.2-2.2-0.8-3.9-1.8-5.1c-0.7-0.9-1.8-1.3-3.1-1.3
				c-1.4,0-2.5,0.7-3.3,2c-0.6,1.1-0.9,2.4-0.9,3.9c0,2.4,1,4.9,3.1,7.4c0.8,1,2,2.1,3.5,3.4c1.8,1.6,3,2.6,3.6,3.3
				c1.9,2,3.4,3.9,4.5,5.9c0.5,0.9,0.9,1.7,1.2,2.5c0.7,1.9,1.1,3.6,1.2,5.1C247.2,57.8,246.2,61,244.3,63.6z M275.8,63.6
				c-1.3,1.8-3.1,3-5.4,3.8c-1.3,0.4-2.7,0.6-4.4,0.6c-3.1,0-5.7-0.8-7.7-2.3c-1.7-1.3-3-3-4-5.2s-1.6-4.7-1.7-7.6l7.5-0.5
				c0.3,3.1,1.2,5.3,2.4,6.7c0.9,1.1,2,1.5,3.2,1.5c1.7-0.1,3.1-0.9,4.1-2.6c0.5-0.8,0.8-2,0.8-3.5c0-2.2-1-4.4-3-6.6
				c-1.6-1.5-3.9-3.7-7-6.7c-2.6-2.6-4.5-4.9-5.5-6.9c-1.2-2.3-1.8-4.8-1.8-7.5c0-4.8,1.6-8.5,4.8-11c2-1.5,4.4-2.2,7.3-2.2
				c2.8,0,5.2,0.6,7.2,1.9c1.5,1,2.8,2.4,3.8,4.2s1.5,3.8,1.7,6.1l-7.6,1.4c-0.2-2.2-0.8-3.9-1.8-5.1c-0.7-0.9-1.8-1.3-3.1-1.3
				c-1.4,0-2.5,0.7-3.3,2c-0.6,1.1-0.9,2.4-0.9,3.9c0,2.4,1,4.9,3.1,7.4c0.8,1,2,2.1,3.5,3.4c1.8,1.6,3,2.6,3.6,3.3
				c1.9,2,3.4,3.9,4.5,5.9c0.5,0.9,0.9,1.7,1.2,2.5c0.7,1.9,1.1,3.6,1.2,5.1C278.7,57.8,277.7,61,275.8,63.6z"/>
		</g>
	</g>
</g>
<g>
	<path class="st0" d="M12.4,67.2C9,67.2,6,66,3.6,63.6C1.2,61.2,0,58.3,0,54.9V26.6c0-3.4,1.2-6.3,3.6-8.7s5.3-3.6,8.7-3.6
		s6.4,1.2,8.7,3.6c2.4,2.4,3.6,5.3,3.6,8.7v5.9h-8.1v-6c0-1.2-0.4-2.3-1.3-3.2C14.3,22.4,13.3,22,12,22c-1.2,0-2.3,0.4-3.1,1.3
		c-0.9,0.9-1.3,1.9-1.3,3.2v28.4c0,1.2,0.4,2.3,1.3,3.2s1.9,1.3,3.1,1.3s2.3-0.4,3.2-1.3c0.9-0.9,1.3-1.9,1.3-3.2V44.6h-4.3v-7.8
		h12.4v18.1c0,3.4-1.2,6.4-3.6,8.7C18.6,66,15.7,67.2,12.4,67.2z"/>
	<path class="st0" d="M52.7,66.6H31.4V14.9h7.8v44h13.5V66.6z"/>
	<path class="st0" d="M70.3,14.3c3.4,0,6.4,1.2,8.8,3.6s3.6,5.3,3.6,8.8v28.2c0,3.4-1.2,6.4-3.6,8.8s-5.3,3.6-8.8,3.6
		c-3.4,0-6.3-1.2-8.7-3.6c-2.4-2.4-3.6-5.3-3.6-8.8V26.6c0-3.4,1.2-6.4,3.6-8.8C64.1,15.5,67,14.3,70.3,14.3z M74.6,26.5
		c0-1.2-0.4-2.3-1.3-3.2c-0.9-0.9-1.9-1.3-3.2-1.3c-1.2,0-2.3,0.4-3.2,1.3c-0.9,0.9-1.3,1.9-1.3,3.2v28.3c0,1.2,0.4,2.3,1.3,3.1
		c0.9,0.9,1.9,1.3,3.2,1.3c1.2,0,2.3-0.4,3.2-1.3c0.9-0.9,1.3-1.9,1.3-3.1V26.5z"/>
	<path class="st0" d="M89.5,66.6V14.9h11.6c3.1,0,5.9,0.8,8.3,2.4c2.1,1.4,3.6,3.5,4.5,6.4c0.5,1.5,0.7,3.4,0.7,5.5
		c0,3.5-0.9,6.2-2.7,8.3c-0.8,0.9-1.7,1.5-2.7,2c1.7,0.7,3.2,2,4.4,3.9c0.8,1.3,1.4,3,1.8,5.1c0.2,1.1,0.3,2.3,0.3,3.6
		c0,3.3-0.6,6-1.8,8.3c-1,1.8-2.3,3.2-4.1,4.3c-2,1.2-3.9,1.8-5.9,1.8L89.5,66.6L89.5,66.6z M97.9,36h3.3c2.4,0,4-1.2,4.9-3.5
		c0.3-0.9,0.5-2,0.5-3.3c0-2.2-0.5-3.8-1.6-4.9c-1-1-2.2-1.5-3.8-1.5h-3.3V36z M97.9,58.9h3.3c2.6,0,4.5-1.4,5.5-4.1
		c0.4-0.9,0.5-2,0.5-3.2c0-2.9-0.6-5-1.7-6.3c-1-1.2-2.4-1.8-4.4-1.8h-3.3L97.9,58.9L97.9,58.9z"/>
	<path class="st0" d="M131.2,54.7l-1.9,11.9h-8.1l8.8-51.7h10.7l8.6,51.7h-8.2l-1.8-11.9C139.3,54.7,131.2,54.7,131.2,54.7z
		 M135.2,26.7l-2.9,20.4h5.8L135.2,26.7z"/>
	<path class="st0" d="M177.1,66.6h-21.3V14.9h7.8v44h13.5V66.6z"/>
</g>
<g>
	<path class="st0" d="M6.2,6.9L6.2,6.9c0,1-0.2,1.8-0.8,2.3S4.2,10,3.2,10S1.5,9.7,0.9,9S0,7.5,0,6.4V3.7c0-1.1,0.3-2,0.9-2.7
		s1.3-1,2.3-1s1.7,0.3,2.2,0.8s0.8,1.3,0.8,2.3l0,0H4.9c0-0.7-0.2-1.2-0.4-1.6C4.2,1.2,3.7,1,3.2,1c-0.6,0-1,0.2-1.3,0.7
		C1.5,2.2,1.4,2.8,1.4,3.6v2.7c0,0.8,0.2,1.5,0.5,1.9C2.2,8.7,2.6,9,3.2,9s1-0.2,1.3-0.5s0.4-0.9,0.4-1.6H6.2z"/>
	<path class="st0" d="M14,6.3c0,1.2-0.3,2.1-0.9,2.7c-0.6,0.6-1.4,1-2.4,1S8.9,9.7,8.3,9S7.4,7.5,7.4,6.3V3.7c0-1.1,0.3-2,0.9-2.7
		s1.4-1,2.4-1s1.8,0.3,2.4,1C13.7,1.6,14,2.5,14,3.7V6.3z M12.7,3.7c0-0.8-0.2-1.5-0.5-1.9s-0.8-0.7-1.5-0.7c-0.6,0-1.1,0.2-1.4,0.7
		s-0.6,1-0.6,1.9v2.7c0,0.9,0.2,1.5,0.5,1.9C9.5,8.7,10,9,10.6,9c0.6,0,1.1-0.2,1.5-0.7c0.3-0.4,0.5-1.1,0.5-1.9V3.7H12.7z"/>
	<path class="st0" d="M17.4,0.1L19.7,8l0,0L22,0.1h1.8v9.7h-1.4V6.1l0.1-3.7l0,0l-2.4,7.5h-0.9l-2.4-7.5l0,0L17,6.1v3.7h-1.4V0.1
		H17.4z"/>
	<path class="st0" d="M27.1,6v3.8h-1.4V0.1H29c0.9,0,1.7,0.3,2.2,0.8C31.7,1.5,32,2.2,32,3.1s-0.3,1.6-0.8,2.1C30.6,5.7,29.9,6,29,6
		H27.1z M27.1,5H29c0.5,0,0.9-0.2,1.2-0.5c0.3-0.4,0.4-0.8,0.4-1.4s-0.1-1-0.4-1.4S29.5,1.2,29,1.2h-1.9V5z"/>
	<path class="st0" d="M39.6,0.1v6.7c0,1-0.3,1.8-0.9,2.3c-0.6,0.5-1.4,0.8-2.3,0.8c-0.9,0-1.7-0.3-2.3-0.8s-0.9-1.3-0.9-2.3V0.1h1.4
		v6.7c0,0.7,0.2,1.2,0.5,1.6C35.4,8.8,35.9,9,36.4,9c0.6,0,1-0.2,1.3-0.5s0.5-0.9,0.5-1.6V0.1H39.6z"/>
	<path class="st0" d="M47.1,1.2h-2.5v8.7h-1.4V1.2h-2.5v-1h6.5L47.1,1.2L47.1,1.2z"/>
	<path class="st0" d="M53.4,5.3h-3.7v3.5H54v1h-5.7V0.1h5.6v1h-4.2v3.1h3.7C53.4,4.2,53.4,5.3,53.4,5.3z"/>
	<path class="st0" d="M56.6,5.7v4.2h-1.4V0.1h3.1c0.9,0,1.7,0.2,2.2,0.7s0.8,1.2,0.8,2c0,0.5-0.1,0.9-0.4,1.3
		c-0.2,0.4-0.6,0.7-1,0.9c0.5,0.3,0.8,0.6,1.1,1c0.2,0.4,0.3,0.9,0.3,1.5v0.8c0,0.3,0,0.6,0.1,0.8c0.1,0.3,0.2,0.5,0.3,0.6v0.2h-1.4
		C60.1,9.7,60,9.5,60,9.2s-0.1-0.6-0.1-0.9V7.4c0-0.5-0.1-1-0.4-1.3s-0.6-0.5-1-0.5L56.6,5.7L56.6,5.7z M56.6,4.6h1.6
		c0.6,0,1-0.1,1.2-0.4c0.3-0.3,0.4-0.7,0.4-1.3s-0.1-1-0.4-1.3s-0.7-0.5-1.2-0.5h-1.7v3.5H56.6z"/>
	<path class="st0" d="M70.7,7.4c0-0.5-0.1-0.8-0.4-1.1C70.1,6,69.6,5.7,69,5.5c-0.9-0.3-1.7-0.6-2.2-1.1C66.3,4,66,3.4,66,2.6
		s0.3-1.4,0.8-1.9C67.4,0.2,68.1,0,69,0s1.7,0.3,2.2,0.9S72,2.2,72,3l0,0h-1.3c0-0.6-0.1-1-0.4-1.4C70,1.2,69.6,1,69,1
		c-0.5,0-0.9,0.1-1.2,0.4c-0.3,0.3-0.4,0.7-0.4,1.1s0.1,0.8,0.4,1s0.8,0.5,1.5,0.8c0.9,0.3,1.6,0.7,2.1,1.1c0.5,0.5,0.7,1.1,0.7,1.9
		s-0.3,1.4-0.8,1.9C70.7,9.8,70,10,69.1,10s-1.7-0.3-2.3-0.8c-0.7-0.5-1-1.2-1-2.2l0,0h1.3c0,0.7,0.2,1.2,0.5,1.5S68.5,9,69.1,9
		c0.5,0,0.9-0.1,1.2-0.4C70.6,8.3,70.7,7.9,70.7,7.4z"/>
	<path class="st0" d="M79.5,6.9L79.5,6.9c0,1-0.2,1.8-0.8,2.3c-0.5,0.5-1.3,0.8-2.2,0.8c-1,0-1.7-0.3-2.3-1s-0.9-1.5-0.9-2.7V3.7
		c0-1.1,0.3-2,0.9-2.7s1.3-1,2.3-1s1.7,0.3,2.2,0.8s0.8,1.3,0.8,2.3l0,0h-1.3c0-0.7-0.2-1.2-0.4-1.6S77,1,76.4,1s-1,0.2-1.3,0.7
		s-0.5,1.1-0.5,1.9v2.7c0,0.8,0.2,1.5,0.5,1.9C75.5,8.7,75.9,9,76.5,9s1-0.2,1.3-0.5s0.4-0.9,0.4-1.6H79.5z"/>
	<path class="st0" d="M82.5,9.9h-1.4V0.1h1.4V9.9z"/>
	<path class="st0" d="M89.6,5.3h-3.7v3.5h4.3v1h-5.7V0.1h5.6v1h-4.2v3.1h3.7C89.6,4.2,89.6,5.3,89.6,5.3z"/>
	<path class="st0" d="M98,9.9h-1.4l-3.8-7.2l0,0v7.2h-1.4V0.1h1.4l3.8,7.2l0,0V0.1H98V9.9z"/>
	<path class="st0" d="M105.8,6.9L105.8,6.9c0,1-0.2,1.8-0.8,2.3s-1.3,0.8-2.2,0.8c-1,0-1.7-0.3-2.3-1s-0.9-1.5-0.9-2.7V3.7
		c0-1.1,0.3-2,0.9-2.7c0.6-0.6,1.3-1,2.3-1s1.7,0.3,2.2,0.8s0.8,1.3,0.8,2.3l0,0h-1.3c0-0.7-0.2-1.2-0.4-1.6S103.4,1,102.8,1
		s-1,0.2-1.3,0.7S101,2.8,101,3.6v2.7c0,0.8,0.2,1.5,0.5,1.9c0.3,0.5,0.8,0.7,1.4,0.7s1-0.2,1.3-0.5s0.4-0.9,0.4-1.6h1.2V6.9z"/>
	<path class="st0" d="M112.4,5.3h-3.7v3.5h4.3v1h-5.7V0.1h5.6v1h-4.2v3.1h3.7C112.4,4.2,112.4,5.3,112.4,5.3z"/>
	<path class="st0" d="M121.8,7.4c0-0.5-0.1-0.8-0.4-1.1c-0.3-0.3-0.7-0.6-1.4-0.8c-0.9-0.3-1.7-0.6-2.2-1.1s-0.8-1-0.8-1.8
		s0.3-1.4,0.8-1.9c0.6-0.5,1.3-0.7,2.2-0.7c0.9,0,1.7,0.3,2.2,0.9c0.6,0.6,0.8,1.3,0.8,2.1l0,0h-1.3c0-0.6-0.1-1-0.4-1.4
		s-0.7-0.5-1.3-0.5c-0.5,0-0.9,0.1-1.2,0.4c-0.3,0.3-0.4,0.7-0.4,1.1s0.1,0.8,0.4,1s0.8,0.5,1.5,0.8c0.9,0.3,1.6,0.7,2.1,1.1
		c0.5,0.5,0.7,1.1,0.7,1.9s-0.3,1.4-0.8,1.9c-0.6,0.5-1.3,0.7-2.2,0.7c-0.9,0-1.7-0.3-2.3-0.8c-0.7-0.5-1-1.2-1-2.2l0,0h1.3
		c0,0.7,0.2,1.2,0.5,1.5S119.4,9,120,9c0.5,0,0.9-0.1,1.2-0.4C121.7,8.3,121.8,7.9,121.8,7.4z"/>
	<path class="st0" d="M131,6.3c0,1.2-0.3,2.1-0.9,2.7c-0.6,0.6-1.4,1-2.4,1c-1,0-1.8-0.3-2.4-1s-0.9-1.5-0.9-2.7V3.7
		c0-1.1,0.3-2,0.9-2.7s1.4-1,2.4-1c1,0,1.8,0.3,2.4,1c0.6,0.6,0.9,1.5,0.9,2.7V6.3z M129.6,3.7c0-0.8-0.2-1.5-0.5-1.9
		s-0.8-0.7-1.5-0.7c-0.6,0-1.1,0.2-1.4,0.7c-0.3,0.4-0.5,1.1-0.5,1.9v2.7c0,0.9,0.2,1.5,0.5,1.9S127,9,127.6,9
		c0.6,0,1.1-0.2,1.5-0.7c0.3-0.4,0.5-1.1,0.5-1.9V3.7z"/>
	<path class="st0" d="M138.5,6.9L138.5,6.9c0,1-0.2,1.8-0.8,2.3s-1.3,0.8-2.2,0.8c-1,0-1.7-0.3-2.3-1c-0.6-0.6-0.9-1.5-0.9-2.7V3.7
		c0-1.1,0.3-2,0.9-2.7s1.3-1,2.3-1s1.7,0.3,2.2,0.8s0.8,1.3,0.8,2.3l0,0h-1.3c0-0.7-0.2-1.2-0.4-1.6S136,1,135.5,1
		c-0.6,0-1,0.2-1.3,0.7s-0.5,1.1-0.5,1.9v2.7c0,0.8,0.2,1.5,0.5,1.9c0.3,0.5,0.8,0.7,1.4,0.7c0.6,0,1-0.2,1.3-0.5s0.4-0.9,0.4-1.6
		h1.2V6.9z"/>
	<path class="st0" d="M141.5,9.9h-1.4V0.1h1.4V9.9z"/>
	<path class="st0" d="M148.6,5.3h-3.7v3.5h4.3v1h-5.7V0.1h5.6v1h-4.2v3.1h3.7L148.6,5.3L148.6,5.3z"/>
	<path class="st0" d="M156.3,1.2h-2.5v8.7h-1.4V1.2h-2.5v-1h6.5v1H156.3z"/>
	<path class="st0" d="M160.4,4.9L160.4,4.9l2.1-4.7h1.5l-2.9,6.2v3.5h-1.4V6.3l-2.9-6.1h1.5L160.4,4.9z"/>
</g>
</svg>
