<?xml version="1.0" encoding="utf-8"?>
<!-- Generator: Adobe Illustrator 22.1.0, SVG Export Plug-In . SVG Version: 6.00 Build 0)  -->
<svg version="1.1" id="Слой_1" xmlns="http://www.w3.org/2000/svg" xmlns:xlink="http://www.w3.org/1999/xlink" x="0px" y="0px"
	 viewBox="0 0 1366 207" style="enable-background:new 0 0 1366 207;" xml:space="preserve">
<style type="text/css">
	.st0{fill:url(#SVGID_1_);}
	.st1{fill:url(#SVGID_2_);}
	.st2{fill:url(#SVGID_3_);}
	.st3{fill:url(#SVGID_4_);}
	.st4{fill:url(#SVGID_5_);}
	.st5{fill:url(#SVGID_6_);}
	.st6{fill:url(#SVGID_7_);}
	.st7{fill:url(#SVGID_8_);}
	.st8{fill:url(#SVGID_9_);}
	.st9{fill:#FFFFFF;}
</style>
<g>
	<g>
		<linearGradient id="SVGID_1_" gradientUnits="userSpaceOnUse" x1="0.7119" y1="103.6934" x2="1219.2345" y2="103.6934">
			<stop  offset="0" style="stop-color:#E53935"/>
			<stop  offset="1" style="stop-color:#B71C1C"/>
		</linearGradient>
		<path class="st0" d="M41.8,111.5c0,31.1,24.3,57.3,53.5,57.3c17.8,0,40.5-5.7,50.5-33.5H99.1v-30.5h90.5v6.2
			c0,52.2-41.9,94.6-94.3,94.6c-51.9,0-94.6-42.7-94.6-94.6s42.7-94.6,94.6-94.6c40.5,0,77,26.5,89.7,64.6h-44.6
			c-8.9-19.5-27.3-26.8-45.1-26.8C66.1,54.2,41.8,80.5,41.8,111.5z"/>
		<linearGradient id="SVGID_2_" gradientUnits="userSpaceOnUse" x1="0.7119" y1="103.6934" x2="1219.2345" y2="103.6934">
			<stop  offset="0" style="stop-color:#E53935"/>
			<stop  offset="1" style="stop-color:#B71C1C"/>
		</linearGradient>
		<path class="st1" d="M215.3,202.9V0.2h40.5v202.7H215.3z"/>
		<linearGradient id="SVGID_3_" gradientUnits="userSpaceOnUse" x1="0.7119" y1="103.6934" x2="1219.2345" y2="103.6934">
			<stop  offset="0" style="stop-color:#E53935"/>
			<stop  offset="1" style="stop-color:#B71C1C"/>
		</linearGradient>
		<path class="st2" d="M417.4,143.4c0,38.1-30,61.9-67.8,61.9c-38.1,0-68.1-23.8-68.1-61.9c0-37.3,30.8-62.2,68.1-62.2
			C386.6,81.3,417.4,106.1,417.4,143.4z M377.1,143.7c0-14.9-6.5-30.8-27.6-30.8c-21.3,0-27.8,15.9-27.8,30.8
			c0,15.1,5.9,31.1,27.8,31.1C371.2,174.8,377.1,158.8,377.1,143.7z"/>
		<linearGradient id="SVGID_4_" gradientUnits="userSpaceOnUse" x1="0.7119" y1="103.6934" x2="1219.2345" y2="103.6934">
			<stop  offset="0" style="stop-color:#E53935"/>
			<stop  offset="1" style="stop-color:#B71C1C"/>
		</linearGradient>
		<path class="st3" d="M443,202.9V0.2h40.5v98.1C494.1,85.3,509,81,524.4,81c33.8,0,59.2,29.5,59.2,62.4c0,33-25.4,62.2-59.2,62.2
			c-15.4,0-32.7-4.9-40.8-17v14.3H443z M512,173.1c16.2,0,28.4-14.1,28.4-29.7c0-15.7-12.2-29.7-28.4-29.7
			c-16.2,0-28.4,14.1-28.4,29.7C483.6,159.1,495.7,173.1,512,173.1z"/>
		<linearGradient id="SVGID_5_" gradientUnits="userSpaceOnUse" x1="0.7119" y1="103.6934" x2="1219.2345" y2="103.6934">
			<stop  offset="0" style="stop-color:#E53935"/>
			<stop  offset="1" style="stop-color:#B71C1C"/>
		</linearGradient>
		<path class="st4" d="M743,202.9h-40.5v-14.3c-8.1,12.2-25.7,17-40.8,17c-33.8,0-59.2-29.2-59.2-62.2c0-33,25.4-62.4,59.2-62.4
			c15.1,0,30.3,4.3,40.8,17.3V84H743V202.9z M674.1,113.7c-16.2,0-28.4,14.1-28.4,29.7c0,15.7,12.2,29.7,28.4,29.7
			c16.2,0,28.4-14.1,28.4-29.7C702.5,127.7,690.3,113.7,674.1,113.7z"/>
		<linearGradient id="SVGID_6_" gradientUnits="userSpaceOnUse" x1="0.7119" y1="103.6934" x2="1219.2345" y2="103.6934">
			<stop  offset="0" style="stop-color:#E53935"/>
			<stop  offset="1" style="stop-color:#B71C1C"/>
		</linearGradient>
		<path class="st5" d="M775.4,202.9V0.2h40.5v202.7H775.4z"/>
		<linearGradient id="SVGID_7_" gradientUnits="userSpaceOnUse" x1="0.7119" y1="103.6934" x2="1219.2345" y2="103.6934">
			<stop  offset="0" style="stop-color:#E53935"/>
			<stop  offset="1" style="stop-color:#B71C1C"/>
		</linearGradient>
		<path class="st6" d="M1026.2,140.4c-12.4,37.8-48.1,65.1-90,65.1c-52.2,0-94.6-42.4-94.6-94.6s42.4-94.6,94.6-94.6
			c41.9,0,77.3,27,89.7,64.6h-45.1c-7.6-16.5-25.9-26.8-44.6-26.8c-29.7,0-53.5,25.7-53.5,56.7c0,31.3,23.8,56.7,53.5,56.7
			c18.9,0,37.3-11.1,44.9-27.3H1026.2z"/>
		<linearGradient id="SVGID_8_" gradientUnits="userSpaceOnUse" x1="0.7119" y1="103.6934" x2="1219.2345" y2="103.6934">
			<stop  offset="0" style="stop-color:#E53935"/>
			<stop  offset="1" style="stop-color:#B71C1C"/>
		</linearGradient>
		<path class="st7" d="M1153.2,152.6c0-35.7-106.2-12.7-106.2-80.5c0-37.8,35.1-55.7,68.6-55.7c37.8,0,71.9,16.8,73.2,58.6h-39.2
			c-2.2-19.2-13.2-25.4-33.5-25.4c-11.3,0-27.3,5.4-27.3,19.2c0,32.7,106.2,9.2,106.2,79.2c0,43.2-38.6,59.2-76.2,59.2
			c-40.5,0-77.6-20-77.8-64.9h41.1c1.1,21.9,18.4,31.9,38.4,31.9C1133.2,174.2,1153.2,169.1,1153.2,152.6z"/>
		<linearGradient id="SVGID_9_" gradientUnits="userSpaceOnUse" x1="0.7119" y1="103.6934" x2="1219.2345" y2="103.6934">
			<stop  offset="0" style="stop-color:#E53935"/>
			<stop  offset="1" style="stop-color:#B71C1C"/>
		</linearGradient>
		<path class="st8" d="M1323.4,152.6c0-35.7-106.2-12.7-106.2-80.5c0-37.8,35.1-55.7,68.6-55.7c37.8,0,71.9,16.8,73.2,58.6h-39.2
			c-2.2-19.2-13.2-25.4-33.5-25.4c-11.3,0-27.3,5.4-27.3,19.2c0,32.7,106.2,9.2,106.2,79.2c0,43.2-38.6,59.2-76.2,59.2
			c-40.5,0-77.6-20-77.8-64.9h41.1c1.1,21.9,18.4,31.9,38.4,31.9C1303.4,174.2,1323.4,169.1,1323.4,152.6z"/>
	</g>
	<g>
		<path class="st9" d="M41.8,111.5c0,31.1,24.3,57.3,53.5,57.3c17.8,0,40.5-5.7,50.5-33.5H99.1v-30.5h90.5v6.2
			c0,52.2-41.9,94.6-94.3,94.6c-51.9,0-94.6-42.7-94.6-94.6s42.7-94.6,94.6-94.6c40.5,0,77,26.5,89.7,64.6h-44.6
			c-8.9-19.5-27.3-26.8-45.1-26.8C66.1,54.2,41.8,80.5,41.8,111.5z"/>
		<path class="st9" d="M215.3,202.9V0.2h40.5v202.7H215.3z"/>
		<path class="st9" d="M417.4,143.4c0,38.1-30,61.9-67.8,61.9c-38.1,0-68.1-23.8-68.1-61.9c0-37.3,30.8-62.2,68.1-62.2
			C386.6,81.3,417.4,106.1,417.4,143.4z M377.1,143.7c0-14.9-6.5-30.8-27.6-30.8c-21.3,0-27.8,15.9-27.8,30.8
			c0,15.1,5.9,31.1,27.8,31.1C371.2,174.8,377.1,158.8,377.1,143.7z"/>
		<path class="st9" d="M443,202.9V0.2h40.5v98.1C494.1,85.3,509,81,524.4,81c33.8,0,59.2,29.5,59.2,62.4c0,33-25.4,62.2-59.2,62.2
			c-15.4,0-32.7-4.9-40.8-17v14.3H443z M512,173.1c16.2,0,28.4-14.1,28.4-29.7c0-15.7-12.2-29.7-28.4-29.7
			c-16.2,0-28.4,14.1-28.4,29.7C483.6,159.1,495.7,173.1,512,173.1z"/>
		<path class="st9" d="M743,202.9h-40.5v-14.3c-8.1,12.2-25.7,17-40.8,17c-33.8,0-59.2-29.2-59.2-62.2c0-33,25.4-62.4,59.2-62.4
			c15.1,0,30.3,4.3,40.8,17.3V84H743V202.9z M674.1,113.7c-16.2,0-28.4,14.1-28.4,29.7c0,15.7,12.2,29.7,28.4,29.7
			c16.2,0,28.4-14.1,28.4-29.7C702.5,127.7,690.3,113.7,674.1,113.7z"/>
		<path class="st9" d="M775.4,202.9V0.2h40.5v202.7H775.4z"/>
		<path class="st9" d="M1026.2,140.4c-12.4,37.8-48.1,65.1-90,65.1c-52.2,0-94.6-42.4-94.6-94.6s42.4-94.6,94.6-94.6
			c41.9,0,77.3,27,89.7,64.6h-45.1c-7.6-16.5-25.9-26.8-44.6-26.8c-29.7,0-53.5,25.7-53.5,56.7c0,31.3,23.8,56.7,53.5,56.7
			c18.9,0,37.3-11.1,44.9-27.3H1026.2z"/>
		<path class="st9" d="M1153.2,152.6c0-35.7-106.2-12.7-106.2-80.5c0-37.8,35.1-55.7,68.6-55.7c37.8,0,71.9,16.8,73.2,58.6h-39.2
			c-2.2-19.2-13.2-25.4-33.5-25.4c-11.3,0-27.3,5.4-27.3,19.2c0,32.7,106.2,9.2,106.2,79.2c0,43.2-38.6,59.2-76.2,59.2
			c-40.5,0-77.6-20-77.8-64.9h41.1c1.1,21.9,18.4,31.9,38.4,31.9C1133.2,174.2,1153.2,169.1,1153.2,152.6z"/>
		<path class="st9" d="M1323.4,152.6c0-35.7-106.2-12.7-106.2-80.5c0-37.8,35.1-55.7,68.6-55.7c37.8,0,71.9,16.8,73.2,58.6h-39.2
			c-2.2-19.2-13.2-25.4-33.5-25.4c-11.3,0-27.3,5.4-27.3,19.2c0,32.7,106.2,9.2,106.2,79.2c0,43.2-38.6,59.2-76.2,59.2
			c-40.5,0-77.6-20-77.8-64.9h41.1c1.1,21.9,18.4,31.9,38.4,31.9C1303.4,174.2,1323.4,169.1,1323.4,152.6z"/>
	</g>
</g>
</svg>
